<svg width="33" height="32" viewBox="0 0 33 32" fill="none" xmlns="http://www.w3.org/2000/svg">
<mask id="path-1-inside-1_60_1690" fill="white">
<path d="M16.4997 0C16.4997 10.5236 11.0234 16 0.5 16C11.0234 16 16.4997 21.4764 16.4997 32C16.4997 21.4764 21.9766 16 32.5 16C21.9766 16 16.4997 10.5236 16.4997 0Z"/>
</mask>
<path d="M17.4372 0C16.8122 0 16.1872 0 15.5622 0C15.4576 1.67976 15.2171 3.32035 14.7748 4.87799C13.2305 11.4588 6.928 14.3195 0.5 13.8906V18.1094C8.94669 17.9007 14.4842 23.7396 13.9997 32H18.9997C18.9997 31.9999 18.9997 31.9998 18.9997 31.9997C18.5153 23.7394 24.0534 17.9008 32.5 18.1094V13.8906C26.0719 14.3194 19.7692 11.4588 18.2247 4.87796C17.7824 3.32033 17.5419 1.67975 17.4372 0C16.8122 0 16.1872 0 15.5622 0C15.4593 1.78713 15.5071 3.59342 15.815 5.41463C16.4499 13.2076 25.2709 18.4634 32.5 18.1094V13.8906C27.9653 13.7586 22.6877 14.62 18.855 18.3548C15.0218 22.0909 13.9926 27.4109 13.9997 31.9996C13.9997 31.9997 13.9997 31.9999 13.9997 32H18.9997C19.0069 27.4114 17.978 22.0914 14.1449 18.355C10.3124 14.6201 5.03464 13.7586 0.5 13.8906L0.5 18.1094C7.72895 18.4635 16.5499 13.2074 17.1845 5.41462C17.4924 3.59341 17.5401 1.78713 17.4372 0ZM15.5622 0H17.4372H15.5622H17.4372H15.5622Z" fill="#A1A3AA" mask="url(#path-1-inside-1_60_1690)"/>
</svg>
