<svg width="33" height="33" viewBox="0 0 33 33" fill="none" xmlns="http://www.w3.org/2000/svg">
<mask id="path-1-inside-1_71_3099" fill="white">
<path d="M16.4997 0.5C16.4997 11.0236 11.0234 16.5 0.5 16.5C11.0234 16.5 16.4997 21.9764 16.4997 32.5C16.4997 21.9764 21.9766 16.5 32.5 16.5C21.9766 16.5 16.4997 11.0236 16.4997 0.5Z"/>
</mask>
<path d="M17.4372 0.5C16.8122 0.5 16.1872 0.5 15.5622 0.5C15.4576 2.17976 15.2171 3.82035 14.7748 5.37799C13.2305 11.9588 6.928 14.8195 0.5 14.3906V18.6094C8.94669 18.4007 14.4842 24.2396 13.9997 32.5H18.9997C18.9997 32.4999 18.9997 32.4998 18.9997 32.4997C18.5153 24.2394 24.0534 18.4008 32.5 18.6094V14.3906C26.0719 14.8194 19.7692 11.9588 18.2247 5.37796C17.7824 3.82033 17.5419 2.17975 17.4372 0.5C16.8122 0.5 16.1872 0.5 15.5622 0.5C15.4593 2.28713 15.5071 4.09342 15.815 5.91463C16.4499 13.7076 25.2709 18.9634 32.5 18.6094V14.3906C27.9653 14.2586 22.6877 15.12 18.855 18.8548C15.0218 22.5909 13.9926 27.9109 13.9997 32.4996C13.9997 32.4997 13.9997 32.4999 13.9997 32.5H18.9997C19.0069 27.9114 17.978 22.5914 14.1449 18.855C10.3124 15.1201 5.03464 14.2586 0.5 14.3906L0.5 18.6094C7.72895 18.9635 16.5499 13.7074 17.1845 5.91462C17.4924 4.09341 17.5401 2.28713 17.4372 0.5ZM15.5622 0.5H17.4372H15.5622H17.4372H15.5622Z" fill="#917256" mask="url(#path-1-inside-1_71_3099)"/>
</svg>
