<svg width="115" height="3" viewBox="0 0 115 3" fill="none" xmlns="http://www.w3.org/2000/svg">
<path d="M109.386 0.892449C109.522 0.886302 109.715 0.927203 109.876 0.930472C110.55 0.94475 110.8 0.973517 111.41 0.992887C112.315 1.02095 115 0.992599 115 1.24486C115 1.24487 115 1.24488 115 1.24488C115 1.24737 115 1.24988 114.999 1.25242C114.99 1.30061 114.761 1.35282 114.728 1.40765C114.694 1.46252 114.719 1.81628 114.395 1.83806C113.924 1.86715 112.796 1.77991 112.545 1.78464C112.374 1.78816 112.163 1.82238 111.943 1.82937C111.236 1.85203 110.867 1.8284 110.23 1.92491C109.975 1.87731 109.72 1.82919 109.465 1.78057C109.133 1.80498 108.629 1.74098 108.427 1.74514C108.261 1.74866 108.164 1.78889 107.991 1.79143C107.798 1.79455 107.5 1.75225 107.148 1.75994C106.57 1.77236 106.468 1.87923 106.121 1.89462C105.762 1.91068 105.203 1.85469 104.744 1.89508C104.687 1.90733 104.629 1.91962 104.572 1.93192C104.613 1.95883 104.654 1.98569 104.695 2.0125C104.465 2.02666 104.365 1.97161 104.153 1.97182C103.903 1.97203 103.776 2.02603 103.608 2.02692C103.47 2.02761 103.284 1.98589 103.105 1.98963C102.845 1.99491 102.902 2.05688 102.762 2.06954C102.706 2.07435 101.673 2.1166 101.615 2.11765C101.172 2.12355 101.133 2.03671 100.78 2.03127C99.7996 2.01637 98.7935 2.09444 97.8869 2.12906C97.4821 2.14441 97.0597 2.14238 96.6561 2.1306C97.2918 1.89236 95.8848 1.71554 96.411 2.08203C95.9619 2.0323 95.6435 2.13454 95.2177 2.12068C94.9423 2.11151 94.7518 2.06066 94.3586 2.06446C93.6609 2.07103 92.8977 2.22825 92.697 1.95535C91.878 2.00833 91.1687 1.91051 90.8735 2.15913C90.6623 2.17594 90.121 2.0318 89.8842 2.01266C89.6601 1.99522 87.9413 1.93572 87.6601 1.93285C87.3789 1.9303 86.8866 1.92822 86.6498 1.95195C86.3523 1.98082 86.1443 2.25228 85.6146 1.93932C84.9987 1.96769 84.7792 1.95993 84.2064 1.92514C84.1027 1.91886 84.091 1.87123 84.0304 1.8714C83.9056 1.87185 83.6932 1.90799 83.4704 1.91326C83.104 1.92196 82.895 1.82126 82.9358 1.97609C82.6943 2.00322 82.4527 2.03053 82.2112 2.05803C82.1264 2.02837 82.0417 1.99863 81.957 1.96882C81.8278 2.00233 81.6987 2.03596 81.5695 2.06972C81.7212 1.84173 80.8123 1.97992 81.1074 2.10973C80.6392 2.06527 80.171 2.02017 79.7027 1.97443C79.7681 1.71104 78.6746 1.94771 78.7667 2.09239C78.7131 2.09248 78.6595 2.09257 78.606 2.09266C78.1369 2.02445 77.7062 2.0848 77.1344 2.03982C76.5628 1.99453 76.6164 1.96783 76.4426 1.84372C76.3081 1.8513 76.1735 1.8589 76.039 1.86653C75.3331 2.21399 75.4579 1.61533 74.2491 1.8851C73.8628 1.66688 72.9108 1.78353 72.2796 1.85372C72.2061 1.86182 72.2049 1.9052 72.1071 1.91895C71.8679 1.95215 71.2576 1.89832 71.2785 2.03937C71.0672 1.99956 70.856 1.95952 70.6447 1.91925C70.472 1.94569 70.2994 1.97225 70.1267 1.99892C70.1276 2.04342 70.1284 2.08791 70.1293 2.1324C69.7816 1.98253 69.2352 2.04318 68.9657 2.00792C68.9121 2.00073 68.9005 1.93877 68.7338 1.92243C68.5389 1.903 68.1758 1.92274 67.9436 1.90404C67.8534 1.97366 67.7631 2.04344 67.6728 2.11338C67.2576 2.15344 67.1117 1.97012 66.8678 1.95661C66.824 1.95426 66.023 1.97073 65.9799 1.9749C65.6266 2.00778 65.7267 2.16631 64.7049 2.13775C64.5229 2.13254 64.3758 2.07773 64.2113 2.07626C63.9208 2.07339 63.0454 2.20487 62.9765 2.32354C62.6242 2.17832 61.6814 2.24412 61.4037 2.20275C61.3199 2.18995 61.3009 2.09485 61.0433 2.07573C60.8345 2.06004 60.2966 2.13938 60.0317 2.12794C59.7506 2.11535 59.6502 2.03471 59.5242 2.02949C59.4052 2.02464 59.2955 2.09075 59.1333 2.09116C58.627 2.09142 58.1685 1.98693 57.7683 1.98638C57.1896 1.98526 56.6784 2.18538 56.1942 2.27703C56.074 2.26486 55.9559 2.22271 55.8299 2.22302C54.2711 2.22561 52.5127 2.19816 50.9493 2.16145C50.2235 2.14566 48.4186 1.867 48.9003 2.34209C48.6481 2.42774 46.8141 2.24539 46.4652 2.24359C46.1165 2.24249 45.84 2.33146 45.5659 2.33448C44.7387 2.34351 44.1561 2.28276 43.1492 2.36636C42.8891 2.38819 42.6105 2.49608 42.4564 2.49599C42.2709 2.49561 42.0713 2.39405 41.831 2.38895C41.2581 2.37763 40.1905 2.41855 39.6409 2.40396C39.5406 2.40106 39.5053 2.30925 39.3618 2.28121C38.8029 2.17158 38.1765 2.18383 38.2873 2.47989C37.571 2.31601 36.9083 2.47381 36.2445 2.48821C34.8409 2.51769 32.284 2.46206 31.0612 2.60121C30.2902 2.68915 30.3099 2.83023 29.1747 2.71768C28.9227 2.69263 28.6719 2.658 28.3662 2.62779C27.6498 2.55727 26.9926 2.29549 26.4466 2.61894C25.6509 2.54121 25.0172 2.60544 24.4269 2.33164C24.3573 2.39849 24.2877 2.46543 24.2181 2.53246C24.1206 2.53474 24.023 2.53702 23.9255 2.5393C23.895 2.47589 23.8646 2.41244 23.8342 2.34895C23.1354 2.33501 22.2488 2.60378 21.6572 2.60637C20.6655 2.61051 18.111 2.52327 17.1706 2.4386C16.6713 2.39371 16.6445 2.53663 16.3586 2.24481C16.247 2.26571 16.1353 2.28666 16.0236 2.30764C15.9537 2.37233 15.8838 2.4371 15.814 2.50196C15.1734 2.50852 14.4137 2.41215 13.8034 2.41631C12.6915 2.42367 11.0218 2.61596 9.90514 2.50248C9.62516 2.47378 9.27518 2.33762 9.001 2.34042C8.60196 2.34439 8.50497 2.57493 7.99858 2.58249C7.12582 2.59567 5.50045 2.33375 4.67553 2.35783C4.43052 2.36502 4.3162 2.45325 4.14702 2.46355C3.43761 2.50773 2.85518 2.50344 2.17494 2.64468C1.44454 2.42057 1.50764 2.12365 1.28129 1.82529C1.10974 1.60033 0.583723 1.07537 0.509052 0.876212C0.4566 0.736484 0.652438 0.558052 0.578937 0.40424C1.45402 0.287105 1.82166 0.424808 2.53223 0.641729C3.84448 0.639435 5.15672 0.637327 6.46896 0.635403C6.58835 0.717056 6.70774 0.798546 6.82713 0.879872C6.82713 0.880049 6.82713 0.880225 6.82713 0.880402C7.33107 0.975327 7.54466 0.76819 7.81644 0.72249C10.4184 0.286809 15.5396 0.668456 18.4041 0.725019C19.0213 0.737634 21.0293 0.647161 21.4528 0.7698C21.5625 0.801694 21.593 0.916153 21.7097 0.92153C22.752 0.857305 23.7943 0.794392 24.8366 0.73279C26.98 0.916149 29.1959 0.781843 31.3556 0.767624C37.1988 0.725143 42.9837 0.681013 48.7313 0.737169C49.8421 0.747671 51.2517 0.685951 52.3391 0.737342C52.793 0.758725 52.9821 0.907395 53.5783 0.80046C53.5845 0.840204 53.5908 0.879942 53.5971 0.919674C54.1174 0.874013 54.4499 0.786001 55.0332 0.780247C55.5244 0.77546 56.8241 0.777164 57.2582 0.794337C57.4833 0.80297 57.3994 0.874517 57.6093 0.87519C57.9687 0.87563 58.7366 0.780909 59.2324 0.783958C59.6816 0.78671 60.4389 0.871981 60.7843 0.86193C62.0281 0.826408 63.3829 0.717505 64.7084 0.757305C65.0745 0.768496 65.5455 0.858697 65.6601 0.856803C65.8841 0.852922 65.9508 0.768721 66.1013 0.75883C66.8655 0.709134 68.0567 0.816322 68.8059 0.824222C71.2468 0.850871 73.8326 0.831405 76.2631 0.860461C77.7985 0.878235 80.3502 0.880891 81.7678 0.943865C82.0735 0.95743 81.9921 1.03699 82.2487 1.03815C82.5333 1.03939 82.6875 0.986408 82.8205 0.982781C83.7412 0.956718 85.7736 0.916067 86.6428 0.973762C86.8084 0.984814 86.9285 1.04509 87.0276 1.04532C87.0778 1.04554 87.1911 1.00546 87.3486 1.00215C88.7394 0.972849 89.7535 1.00222 91.1163 1.02245C93.7264 1.06003 96.7506 1.00717 99.4925 1.05842C100.09 1.06953 100.5 1.17293 100.584 1.17214C100.768 1.17079 100.886 1.10324 101.259 1.08845C102.501 1.04044 104.173 1.11986 105.353 1.09307C105.937 1.07999 106.738 1.00416 107.312 0.990631C107.771 0.979775 108.854 1.01768 109.057 0.984882C109.18 0.965104 109.238 0.899471 109.386 0.892449ZM93.9397 2.00566C94.0214 1.87787 93.163 1.9882 93.485 2.05529C93.5575 2.07028 93.9186 2.03877 93.9397 2.00566ZM53.7438 1.91203C53.7517 1.96466 53.7595 2.01727 53.7674 2.06988C53.8801 2.04748 53.9928 2.02514 54.1055 2.00285C54.0421 1.97154 53.9788 1.94018 53.9155 1.90877C53.8582 1.90985 53.801 1.91094 53.7438 1.91203Z" fill="#A1A3AA"/>
</svg>
