<svg width="49" height="72" viewBox="0 0 49 72" fill="none" xmlns="http://www.w3.org/2000/svg">
<path d="M36.9863 72C27.5669 71.833 19.8576 68.8274 13.1864 63.1794C6.96902 57.9149 3.11137 51.2232 1.56406 43.2296C0.769278 39.124 0.827994 34.9917 1.37276 30.8469C1.71515 28.2414 2.12106 25.6554 3.11749 23.2182C4.56786 19.6147 6.56192 16.2549 9.0302 13.2556C13.6988 7.62236 19.4684 3.74869 26.5368 1.73907C31.1565 0.425607 35.8112 -0.308564 40.6009 0.124595C42.1836 0.267817 43.7456 0.663678 45.3069 0.991352C45.5185 1.03506 45.8543 1.42582 45.8131 1.54719C45.7206 1.81979 45.4649 2.15548 45.2077 2.22949C44.6329 2.39501 44.0166 2.41555 43.4174 2.49627C40.0663 2.94793 37.0671 4.35158 34.1459 5.94931C31.7875 7.21343 29.7024 8.93165 28.0109 11.005C25.8137 13.7288 24.9939 16.8952 25.4045 20.3374C25.5984 21.9637 26.0911 23.5521 26.3887 25.1686C26.6629 26.6587 26.4125 28.0609 25.4868 29.3099C25.0351 29.9203 25.0325 30.537 25.4747 31.1894C27.4707 34.1363 28.8139 37.4176 30.2524 40.6476C30.8904 42.0801 30.4612 42.9754 28.9532 43.4012C28.4602 43.5218 27.9557 43.589 27.4483 43.6017C26.3943 43.6636 25.9058 44.3749 26.318 45.329C26.7039 46.2227 26.7857 47.0214 25.9829 47.7818C25.755 47.9976 25.6943 48.4979 25.7232 48.8543C25.7853 49.6192 25.6854 50.293 25.1472 50.878C24.3194 51.7777 24.4265 52.754 24.9225 53.7733C26.7347 57.4974 29.4256 60.4193 32.7427 62.8918C36.8243 65.934 41.3559 67.7665 46.3217 68.644C46.7252 68.7154 47.151 68.695 47.5373 68.8127C47.6522 68.8567 47.756 68.9254 47.8414 69.014C47.9268 69.1026 47.9917 69.2088 48.0315 69.3253C48.0662 69.4665 47.8434 69.7427 47.669 69.8526C45.9831 70.9147 44.0507 71.2348 42.1405 71.518C40.226 71.8029 38.2823 71.8853 36.9863 72ZM44.3536 69.9222L44.3077 69.6907C44.1696 69.7108 44.0318 69.7344 43.8932 69.7507C42.4517 69.9148 41.0113 70.2024 39.5683 70.2156C36.1935 70.2467 32.9451 69.4134 29.7327 68.4748C24.7485 67.0179 20.5183 64.2116 16.6305 60.8795C14.0024 58.627 11.8833 55.9142 10.1024 52.9332C6.79942 47.4043 4.7751 41.5148 5.08208 34.9958C5.19121 32.6769 5.54176 30.3696 5.7756 28.0562C6.07123 25.1322 7.1644 22.5264 8.92953 20.1973C9.25167 19.7723 9.67521 19.424 10.0514 19.0404L10.1857 19.1628C8.42737 21.1147 7.21023 23.4927 6.65518 26.0606C6.26675 27.8025 6.20352 29.6141 5.90498 31.3796C5.19471 35.5813 5.33924 39.7457 6.48778 43.8417C8.81472 52.1281 13.5822 58.6753 20.7069 63.4994C24.0187 65.7418 27.5504 67.4539 31.4611 68.467C34.892 69.3557 38.3073 69.9844 41.8548 69.6865C42.4508 69.6363 43.0441 69.5539 43.4532 69.5074C41.1248 69.3297 38.6392 69.2169 36.1739 68.9297C33.7339 68.6455 29.6428 67.1633 29.2523 66.6517C31.1999 67.1978 33.2299 67.8092 35.2822 68.3307C37.3436 68.871 39.4925 68.9919 41.6016 68.6864C40.6378 68.4241 39.6492 68.3389 38.6796 68.1559C37.7032 67.9771 36.7388 67.7379 35.792 67.4397C34.8595 67.1402 33.9645 66.7249 33.0529 66.3603L33.1372 66.1409C35.0022 66.7163 36.769 67.6653 38.7779 67.7155C37.8734 67.1824 36.9073 66.7958 36.0066 66.2923C31.0966 63.5476 26.8722 60.0844 24.3321 54.9076C24.0844 54.4019 23.781 54.2187 23.2081 54.2381C22.5749 54.2594 21.9061 54.2008 21.3555 53.7053L23.6256 54.0404L23.6797 53.7895C23.0386 52.9388 21.8293 53.5382 21.0035 52.7928C21.6108 52.8699 22.1008 52.9743 22.5916 52.9764C22.832 52.9774 23.0731 52.7884 23.314 52.685C23.1056 52.545 22.9146 52.3566 22.6856 52.2741C22.0758 52.0544 21.4496 51.8807 20.83 51.6881L20.8922 51.4841L23.2736 52.1082L23.3653 51.8022L22.2288 51.3039L22.2644 51.2324L23.4059 51.3157L23.3959 51.1945L21.3981 50.3969C22.2469 50.3665 23.0308 50.4597 23.807 50.4165C23.9579 50.4015 24.1039 50.3546 24.2353 50.279C24.3667 50.2034 24.4805 50.1007 24.5693 49.9777C24.658 49.8548 24.7196 49.7144 24.75 49.5659C24.7804 49.4173 24.7789 49.264 24.7456 49.1161C24.6683 48.8368 24.3209 48.4313 24.09 48.4271C22.3125 48.3994 20.5256 48.5874 18.7165 47.9626C18.698 48.3666 18.6833 48.6911 18.6675 49.0361C17.7679 47.894 17.9992 47.0147 19.3839 46.2109C19.3468 46.9488 19.8502 47.4202 20.6623 47.2958C21.2376 47.2112 21.7976 47.0435 22.3247 46.7978C23.3475 46.3081 24.3278 46.0356 25.2709 46.9201C25.9784 46.2645 25.4786 45.8258 25.1176 45.3973C24.2935 44.4197 24.5348 43.3998 25.7182 42.9226C25.8595 42.8657 25.991 42.7845 26.1149 42.7208C25.1995 42.0033 24.3718 42.6203 23.5263 42.8333C23.489 42.8426 23.5215 43.1291 23.5215 43.2931C21.8413 42.8587 20.9597 41.6447 21.4843 40.376C21.9855 39.1635 22.6589 38.4634 24.0648 39.1084C23.0474 39.3348 22.525 39.8223 22.4228 40.642C22.3082 41.5583 22.8153 41.944 23.6912 41.7843C24.4825 41.6402 25.3594 41.4949 26.1067 41.6945C27.1254 41.9666 28.1028 42.1532 29.1643 42.0959L27.6065 42.3573L27.6615 42.6135C28.211 42.4749 28.9041 42.486 29.2595 42.1449C29.4926 41.9205 29.2523 41.1872 29.1974 40.6849C29.1828 40.5502 29.065 40.429 29.0038 40.2973C27.6143 37.3105 26.2636 34.3055 24.3747 31.5803C23.7828 30.7266 23.784 29.799 24.4398 28.9372C25.5863 27.4306 25.6672 25.7944 25.1151 24.0418C24.3429 21.5913 23.9315 19.1172 24.4433 16.5267C24.9483 13.9695 25.9361 11.6975 27.6672 9.72609C29.8702 7.2179 32.6618 5.55111 35.5681 3.99215L35.2077 3.75699L39.7346 2.31036L39.6699 2.0277L35.3103 2.44192C37.5952 1.68721 40.0183 1.88973 42.3541 1.50945C35.2812 0.85935 28.6483 2.22949 22.5246 5.92745C26.9312 3.03258 31.72 1.27969 36.9845 0.878874C36.5493 0.831472 36.1098 0.840188 35.6767 0.904808C34.1286 1.16561 32.5837 1.44462 31.0401 1.72917C27.7708 2.34784 24.6418 3.5575 21.8066 5.29877C17.969 7.63136 14.5148 10.5428 11.5662 13.9301C9.50921 16.2883 7.69909 18.8509 6.16418 21.5779C4.5312 24.457 4.0501 27.6871 3.61447 30.9107C2.91308 36.0933 3.21657 41.2086 4.75557 46.2201C6.50074 51.9023 9.5875 56.8012 13.827 60.9168C18.523 65.4755 24.0745 68.6016 30.4791 70.1173C31.5911 70.3804 32.7214 70.5668 33.8433 70.7887L33.8783 70.6081C33.7656 70.5816 33.6527 70.556 33.5402 70.5286C33.3993 70.4941 33.2602 70.4502 33.1177 70.4238C30.0885 69.8834 27.1443 68.9433 24.3624 67.6282C18.5086 64.8248 13.8812 60.6013 10.11 55.4063C7.54736 51.9174 5.73581 47.9352 4.78967 43.711C3.76719 39.1049 3.59614 34.3507 4.28497 29.6831C4.57039 27.7281 4.90856 25.7298 5.60557 23.897C6.89136 20.5157 8.94104 17.5136 11.4701 14.96C14.0715 12.3332 16.9499 9.978 19.7495 7.55271C20.4314 6.96191 21.2784 6.56197 22.0496 6.07461L22.1477 6.22803C22.002 6.34794 21.8599 6.4712 21.7119 6.58746C19.943 7.97728 18.1251 9.30881 16.4155 10.7671C13.5327 13.2265 10.8036 15.8486 8.82754 19.1329C7.91882 20.6435 6.92225 22.1343 6.26194 23.754C5.09228 26.6243 4.78894 29.7223 4.46607 32.7759C4.07808 36.4452 4.44975 40.1045 5.31112 43.6788C7.05731 50.926 10.8487 56.988 16.4641 61.8427C20.6537 65.4647 25.41 68.1113 30.8636 69.4066C34.136 70.1837 37.4174 70.7384 40.7896 70.4148C41.9824 70.3006 43.1662 70.0893 44.3536 69.9222ZM17.0724 64.7523C4.68811 54.4779 0.00698662 41.5998 3.91898 25.7907C1.45872 34.0592 1.31448 42.1921 4.94236 50.1638C7.66123 56.1361 11.7333 60.9638 17.0724 64.7523ZM24.0164 3.58667C20.3412 5.29134 16.765 7.15627 13.7871 9.99417C10.3885 13.2326 7.48828 16.837 5.51932 21.1313C9.9768 13.4734 16.3033 7.80827 24.0164 3.58667Z" fill="#A1A3AA"/>
<path d="M21.971 28.0517L22.6347 27.93C22.5486 28.2849 22.3418 28.6522 22.4278 28.9285C22.5046 29.1762 22.9039 29.3226 23.2245 29.5611L21.9786 31.1171L21.825 31.0192C21.8667 30.8703 21.9084 30.7216 21.9649 30.5199L21.2235 30.3694C20.8876 31.3644 20.7808 32.4224 20.9111 33.4645C21.1272 35.1524 20.0402 36.1007 18.6158 36.3458C18.4889 36.3462 18.3659 36.3024 18.268 36.2218C19.2115 35.9269 20.2181 35.738 20.4645 34.3715C19.5842 35.4161 18.666 35.7145 17.6936 35.0511C18.304 34.9397 19.0112 34.8967 19.6434 34.6566C19.9361 34.5454 20.0829 34.0498 20.225 33.6804C18.564 35.175 17.2187 33.4919 15.6543 33.3264L17.119 34.6779C17.0877 34.725 17.0564 34.7721 17.0249 34.8192C16.4552 34.39 15.765 34.0541 15.3429 33.5102C14.6582 32.6276 13.9999 32.2252 12.8579 32.6747C12.2531 32.9126 11.515 32.8119 10.8208 32.7501C12.0752 32.4765 13.4152 32.5125 14.3841 31.4642C13.0371 32.0626 11.6932 32.4452 10.29 31.6564C12.7511 32.1955 14.5773 31.1 16.2505 29.462C16.8894 28.814 17.6599 28.3105 18.5098 27.9854C19.3598 27.6603 20.2696 27.5211 21.1779 27.5773C21.6149 27.5962 22.0743 27.0802 22.5235 26.8105L22.4335 26.6219L19.9766 27.3766L19.9123 27.191L22.5057 26.2564C21.976 25.3912 21.2535 25.2627 20.5467 25.3093C18.2423 25.4638 16.1377 26.0607 14.5265 27.92C13.6071 28.9809 12.5068 29.8914 10.9985 30.0482C10.8301 30.0658 10.6634 30.1028 10.4946 30.1155C10.3846 30.1183 10.2762 30.0891 10.1826 30.0313C12.6402 29.4734 13.8501 27.3685 15.4981 25.8174C16.761 24.6289 18.1408 23.6933 19.9046 23.47C21.275 23.2965 22.4386 23.6688 23.3224 24.7876C23.4701 24.9727 23.5787 25.1858 23.6416 25.414C23.7046 25.6422 23.7206 25.8809 23.6887 26.1155C23.6568 26.3501 23.5777 26.5758 23.4561 26.7789C23.3344 26.9821 23.1729 27.1585 22.9812 27.2974C22.6425 27.5146 22.2923 27.7133 21.9321 27.8926L21.971 28.0517ZM15.0087 31.6878C15.0405 31.7461 15.0721 31.8049 15.1037 31.8641C15.3753 31.7317 15.648 31.6019 15.918 31.4664C17.1637 30.8411 18.392 30.1778 19.6601 29.6022C20.3673 29.2816 21.1152 29.2467 21.7515 29.8679C21.8584 29.9723 22.0497 29.9902 22.202 30.0479C21.9489 29.6778 21.5973 29.4678 21.3362 29.1766C20.7107 28.4791 19.9812 28.2994 19.1126 28.6004C17.4084 29.1915 16.1676 30.3866 15.0087 31.6878ZM16.0904 32.2641C17.2775 33.4219 18.71 33.7439 19.5374 33.0708C18.563 32.6499 18.0535 31.9583 18.3305 30.7602L16.0904 32.2641Z" fill="#A1A3AA"/>
<path d="M9.47013 48.914C6.95728 46.0688 5.69218 35.7044 7.38796 32.0449C6.91794 34.9077 6.8075 37.7649 7.24459 40.6456C7.65357 43.4807 8.40074 46.2566 9.47013 48.914Z" fill="#A1A3AA"/>
<path d="M10.2649 46.8304C8.62277 45.2975 7.22975 37.2905 8.2269 34.8298C8.09854 39.1062 8.37712 43.1063 10.2649 46.8304Z" fill="#A1A3AA"/>
<path d="M16.4966 20.8134C18.9472 19.4371 23.1695 19.9616 24.0423 21.8455C21.7126 20.0324 19.1732 19.9546 16.4966 20.8134Z" fill="#A1A3AA"/>
<path d="M23.5377 18.2791C21.3831 17.2942 19.2033 16.4907 16.6284 17.1689C18.107 16.1073 22.3484 16.81 23.5377 18.2791Z" fill="#A1A3AA"/>
<path d="M7.01174 28.3528C7.00504 25.51 8.29389 23.2288 10.1842 21.2136C8.56707 23.3478 7.37992 25.6682 7.01174 28.3528Z" fill="#A1A3AA"/>
<path d="M15.9061 12.3049L10.4961 18.7102C12.0166 16.4106 13.5785 14.1482 15.9061 12.3049Z" fill="#A1A3AA"/>
<path d="M23.6172 19.948C21.8742 18.8612 20.0087 18.3231 17.8955 18.4837C19.2976 17.717 22.8213 18.6091 23.6172 19.948Z" fill="#A1A3AA"/>
<path d="M10.2804 50.3679L12.7572 54.2334C11.544 53.1965 10.8608 51.8051 10.1104 50.4587L10.2804 50.3679Z" fill="#A1A3AA"/>
<path d="M9.17832 25.4971C8.82195 26.2693 8.39826 27.0032 8.14285 27.792C7.89603 28.5543 7.82231 29.3726 7.67049 30.1799C7.24302 28.9049 8.04989 26.4249 9.17832 25.4971Z" fill="#A1A3AA"/>
<path d="M21.5288 7.87L26.0055 5.04346L26.1317 5.24394L21.649 8.07834L21.5288 7.87Z" fill="#A1A3AA"/>
<path d="M11.1893 22.0969C10.0329 23.5194 8.87659 24.942 7.81445 26.2486C8.3327 24.5346 9.80702 23.359 11.1893 22.0969Z" fill="#A1A3AA"/>
<path d="M23.5879 64.0967L27.4198 66.0844L27.2848 66.3355L23.4546 64.3079L23.5879 64.0967Z" fill="#A1A3AA"/>
<path d="M34.1385 2.73305L30.0485 3.82578L29.9912 3.62953L34.0509 2.43335L34.1385 2.73305Z" fill="#A1A3AA"/>
<path d="M18.5391 43.0491C19.0353 42.7188 19.5842 42.48 19.9493 42.0751C20.3107 41.6743 20.4868 41.1061 20.8007 40.5024C20.9252 41.8676 19.6385 43.2401 18.5391 43.0491Z" fill="#A1A3AA"/>
<path d="M18.2171 60.4587L21.9442 63.2072L21.7985 63.4023L18.061 60.6266L18.2171 60.4587Z" fill="#A1A3AA"/>
<path d="M31.8462 64.5967L35.0252 66.2633L34.9408 66.4415L31.7031 64.9212C31.7508 64.8132 31.7985 64.7051 31.8462 64.5967Z" fill="#A1A3AA"/>
<path d="M15.4077 28.9404L18.6559 27.0398L18.8016 27.3077L15.5055 29.154L15.4077 28.9404Z" fill="#A1A3AA"/>
<path d="M11.5405 30.7134C12.8906 30.8627 14.1519 30.5575 15.3521 29.9275C14.2049 30.7893 12.9631 31.1949 11.5405 30.7134Z" fill="#A1A3AA"/>
<path d="M17.1183 46.5439C16.671 47.6552 16.2035 48.7616 17.2501 49.9824C16.0831 49.2877 16.0636 47.8353 17.1183 46.5439Z" fill="#A1A3AA"/>
<path d="M8.91427 40.8565C8.83656 39.8588 8.75886 38.8611 8.68115 37.8633L8.92301 37.8442C9.00178 38.8418 9.08051 39.8394 9.15919 40.8372L8.91427 40.8565Z" fill="#A1A3AA"/>
<path d="M29.6246 64.5022L32.2472 65.7323C32.2169 65.7991 32.1866 65.8658 32.1564 65.9327L29.52 64.7425L29.6246 64.5022Z" fill="#A1A3AA"/>
<path d="M16.9541 11.3032L19.3769 9.30396L19.5101 9.46043L17.1032 11.4496L16.9541 11.3032Z" fill="#A1A3AA"/>
<path d="M13.1743 30.125L15.6726 29.3271L15.7323 29.4916L13.2539 30.3792L13.1743 30.125Z" fill="#A1A3AA"/>
<path d="M24.8918 25.3602C24.7753 24.9765 24.6799 24.5842 24.5339 24.2118C24.3982 23.8653 24.2082 23.5404 24.042 23.2065L24.2514 23.1182L25.1605 25.2891L24.8918 25.3602Z" fill="#A1A3AA"/>
</svg>
