<?xml version="1.0" encoding="utf-8"?>
<!-- Generator: Adobe Illustrator 26.3.1, SVG Export Plug-In . SVG Version: 6.00 Build 0)  -->
<svg version="1.1" id="Calque_1" xmlns="http://www.w3.org/2000/svg" xmlns:xlink="http://www.w3.org/1999/xlink" x="0px" y="0px"
	 viewBox="0 0 312 312" style="enable-background:new 0 0 312 312;" xml:space="preserve">
<style type="text/css">
	.st0{fill:#FFFFFF;}
	.st1{fill:none;stroke:#A9927C;stroke-linecap:round;stroke-linejoin:round;}
	.st2{fill:#A9927C;}
</style>
<path class="st0" d="M0,8c0-4.4,3.6-8,8-8h296c4.4,0,8,3.6,8,8v296c0,4.4-3.6,8-8,8H8c-4.4,0-8-3.6-8-8V8z"/>
<path class="st1" d="M20,16.5h272c1.9,0,3.5,1.6,3.5,3.5v272c0,1.9-1.6,3.5-3.5,3.5H20c-1.9,0-3.5-1.6-3.5-3.5V20
	C16.5,18.1,18.1,16.5,20,16.5z"/>
<rect x="258" y="12.2" class="st0" width="41.7" height="41.8"/>
<path class="st2" d="M273,28.5c2.5,4.8,6.5,8.6,11.3,11l4-15L273,28.5z M280.7,72c-0.1,0-0.2,0-0.3-0.1c-0.1,0-0.1-0.1-0.2-0.2
	s-0.1-0.1-0.1-0.2c0-0.1,0-0.2,0-0.3l3.7-13.8c0-0.1,0.1-0.3,0.3-0.3c0.1-0.1,0.3-0.1,0.4-0.1c0.1,0,0.3,0.1,0.3,0.3
	c0.1,0.1,0.1,0.3,0.1,0.4l-3.7,13.8c0,0.1-0.1,0.2-0.2,0.3C281,72,280.9,72,280.7,72z M267,66.3c-0.1,0-0.2,0-0.3-0.1
	c-0.1,0-0.2-0.1-0.2-0.2c0-0.1-0.1-0.2-0.1-0.3c0-0.1,0-0.2,0.1-0.3l7.1-12.3c0-0.1,0.1-0.1,0.1-0.2c0.1,0,0.1-0.1,0.2-0.1
	c0.1,0,0.1,0,0.2,0c0.1,0,0.1,0,0.2,0.1c0.1,0,0.1,0.1,0.2,0.1c0,0.1,0.1,0.1,0.1,0.2c0,0.1,0,0.1,0,0.2c0,0.1,0,0.1-0.1,0.2
	L267.5,66c-0.1,0.1-0.1,0.2-0.2,0.2C267.2,66.3,267.1,66.3,267,66.3z M288.7,65.9C288.6,65.9,288.6,65.9,288.7,65.9
	c-0.2,0-0.4-0.1-0.5-0.2c-0.1-0.1-0.1-0.3-0.1-0.4l0.9-6.6c0-0.1,0.1-0.3,0.2-0.4s0.3-0.1,0.4-0.1c0.1,0,0.3,0.1,0.4,0.2
	c0.1,0.1,0.1,0.3,0.1,0.4l-0.9,6.6c0,0.1-0.1,0.3-0.2,0.3C288.9,65.8,288.8,65.9,288.7,65.9z M276.4,62.5c-0.1,0-0.2,0-0.3-0.1
	c-0.1,0-0.2-0.1-0.2-0.2c-0.1-0.1-0.1-0.2-0.1-0.3c0-0.1,0-0.2,0-0.3l2.6-6.1c0.1-0.1,0.2-0.2,0.3-0.3c0.1-0.1,0.3-0.1,0.4,0
	c0.1,0.1,0.2,0.2,0.3,0.3c0.1,0.1,0.1,0.3,0,0.4l-2.6,6.1c0,0.1-0.1,0.2-0.2,0.3C276.6,62.5,276.5,62.5,276.4,62.5L276.4,62.5z
	 M255.3,57.3c-0.1,0-0.2,0-0.3-0.1s-0.2-0.2-0.2-0.3c0-0.1-0.1-0.2,0-0.3s0.1-0.2,0.2-0.3L265,46.2c0.1-0.1,0.2-0.1,0.4-0.1
	c0.1,0,0.3,0.1,0.4,0.2c0.1,0.1,0.2,0.2,0.2,0.4c0,0.1,0,0.3-0.1,0.4l-10.1,10.1c-0.1,0.1-0.1,0.1-0.2,0.1
	C255.4,57.3,255.3,57.3,255.3,57.3L255.3,57.3z M265.4,56.1c-0.1,0-0.2,0-0.3-0.1c-0.1-0.1-0.2-0.1-0.2-0.2c0-0.1-0.1-0.2-0.1-0.3
	c0-0.1,0.1-0.2,0.1-0.3l4.1-5.3c0-0.1,0.1-0.1,0.2-0.1c0.1,0,0.1-0.1,0.2-0.1c0.1,0,0.1,0,0.2,0s0.1,0.1,0.2,0.1
	c0.1,0,0.1,0.1,0.1,0.2c0,0.1,0.1,0.1,0.1,0.2c0,0.1,0,0.1,0,0.2c0,0.1-0.1,0.1-0.1,0.2l-4.1,5.3c-0.1,0.1-0.1,0.1-0.2,0.2
	C265.6,56.1,265.5,56.1,265.4,56.1L265.4,56.1z M295.4,54.9c-10.2,0-19.9-4.1-27.1-11.2c-7.2-7.2-11.2-16.9-11.2-27.1
	c0-0.1,0.1-0.3,0.2-0.4c0.1-0.1,0.2-0.2,0.4-0.2c0.1,0,0.3,0.1,0.4,0.2c0.1,0.1,0.2,0.2,0.2,0.4c0,9.9,3.9,19.3,10.9,26.3
	c7,7,16.4,10.9,26.3,10.9c0.1,0,0.3,0.1,0.4,0.2c0.1,0.1,0.2,0.3,0.2,0.4c0,0.2-0.1,0.3-0.2,0.4C295.7,54.8,295.6,54.9,295.4,54.9
	L295.4,54.9z M256.6,47.4c-0.1,0-0.2,0-0.3-0.1c-0.1-0.1-0.2-0.2-0.2-0.3c0-0.1,0-0.2,0-0.3s0.1-0.2,0.2-0.3l5.2-4.1
	c0.1,0,0.1-0.1,0.2-0.1c0.1,0,0.1,0,0.2,0c0.1,0,0.1,0,0.2,0.1c0.1,0,0.1,0.1,0.2,0.1s0.1,0.1,0.1,0.2c0,0.1,0,0.1,0,0.2
	c0,0.1,0,0.1-0.1,0.2c0,0.1-0.1,0.1-0.1,0.2l-5.2,4.1C256.9,47.3,256.8,47.4,256.6,47.4z M246.2,45.5c-0.1,0-0.2,0-0.3-0.1
	c-0.1-0.1-0.2-0.2-0.2-0.3c0-0.1,0-0.2,0-0.4c0-0.1,0.1-0.2,0.2-0.3l12.3-7.1c0.1-0.1,0.3-0.1,0.4-0.1c0.1,0,0.3,0.1,0.3,0.3
	c0.1,0.1,0.1,0.3,0.1,0.4c0,0.1-0.1,0.3-0.3,0.3l-12.3,7.1C246.4,45.5,246.3,45.5,246.2,45.5z M295.4,43.1c-7,0-13.8-2.8-18.8-7.8
	c-5-5-7.8-11.7-7.8-18.8c0-0.2,0.1-0.3,0.2-0.4c0.1-0.1,0.2-0.2,0.4-0.2c0.1,0,0.3,0.1,0.4,0.2c0.1,0.1,0.2,0.3,0.2,0.4
	c0,3.8,0.8,7.5,2.4,10.9c0,0,0,0,0,0l16.4-4.3c0.1,0,0.2,0,0.3,0c0.1,0,0.2,0.1,0.3,0.1c0.1,0.1,0.1,0.2,0.1,0.3c0,0.1,0,0.2,0,0.3
	l-4.3,16.1c3.2,1.4,6.6,2.1,10.1,2.1c0.2,0,0.3,0.1,0.4,0.2c0.1,0.1,0.2,0.3,0.2,0.4c0,0.2-0.1,0.3-0.2,0.4
	C295.7,43.1,295.6,43.1,295.4,43.1L295.4,43.1z M250.1,36.3c-0.1,0-0.3,0-0.4-0.1c-0.1-0.1-0.2-0.2-0.2-0.3c0-0.1,0-0.3,0.1-0.4
	c0.1-0.1,0.2-0.2,0.3-0.3l6.1-2.6c0.1,0,0.1,0,0.2,0c0.1,0,0.1,0,0.2,0c0.1,0,0.1,0.1,0.2,0.1c0.1,0.1,0.1,0.1,0.1,0.2
	c0,0.1,0,0.1,0,0.2c0,0.1,0,0.1,0,0.2c0,0.1-0.1,0.1-0.1,0.2c-0.1,0.1-0.1,0.1-0.2,0.1l-6.1,2.6C250.3,36.2,250.2,36.3,250.1,36.3z
	 M240.6,31.8c-0.1,0-0.3-0.1-0.4-0.1c-0.1-0.1-0.2-0.2-0.2-0.4c0-0.1,0-0.3,0.1-0.4c0.1-0.1,0.2-0.2,0.3-0.2l13.8-3.7
	c0.1,0,0.1,0,0.2,0c0.1,0,0.1,0,0.2,0.1c0.1,0,0.1,0.1,0.2,0.1c0,0.1,0.1,0.1,0.1,0.2c0,0.1,0,0.1,0,0.2c0,0.1,0,0.1-0.1,0.2
	c0,0.1-0.1,0.1-0.1,0.2c-0.1,0-0.1,0.1-0.2,0.1l-13.8,3.7C240.7,31.8,240.6,31.8,240.6,31.8z M246.7,24.1c-0.1,0-0.3-0.1-0.4-0.2
	c-0.1-0.1-0.2-0.2-0.2-0.4c0-0.1,0-0.3,0.1-0.4c0.1-0.1,0.2-0.2,0.4-0.2l6.6-0.9c0.1,0,0.3,0,0.4,0.1c0.1,0.1,0.2,0.2,0.2,0.4
	c0,0.1,0,0.3-0.1,0.4c-0.1,0.1-0.2,0.2-0.4,0.2L246.7,24.1C246.8,24.1,246.8,24.1,246.7,24.1z"/>
<rect x="13.5" y="13.9" class="st0" width="40.5" height="40.1"/>
<path class="st2" d="M28.5,39c4.8-2.5,8.6-6.5,11-11.3l-15-4L28.5,39z M72,31.3c0,0.1,0,0.2-0.1,0.3c0,0.1-0.1,0.1-0.2,0.2
	c-0.1,0.1-0.1,0.1-0.2,0.1c-0.1,0-0.2,0-0.3,0l-13.8-3.7c-0.1,0-0.3-0.1-0.3-0.3c-0.1-0.1-0.1-0.3-0.1-0.4c0-0.1,0.1-0.3,0.3-0.3
	c0.1-0.1,0.3-0.1,0.4-0.1l13.8,3.7c0.1,0,0.2,0.1,0.3,0.2C72,31,72,31.1,72,31.3z M66.3,45c0,0.1,0,0.2-0.1,0.3
	c0,0.1-0.1,0.2-0.2,0.2c-0.1,0-0.2,0.1-0.3,0.1c-0.1,0-0.2,0-0.3-0.1l-12.3-7.1c-0.1,0-0.1-0.1-0.2-0.1c0-0.1-0.1-0.1-0.1-0.2
	c0-0.1,0-0.1,0-0.2c0-0.1,0-0.1,0.1-0.2c0-0.1,0.1-0.1,0.1-0.2c0.1,0,0.1-0.1,0.2-0.1c0.1,0,0.1,0,0.2,0c0.1,0,0.1,0,0.2,0.1
	L66,44.5c0.1,0,0.2,0.1,0.2,0.2C66.3,44.8,66.3,44.9,66.3,45z M65.9,23.3C65.9,23.4,65.9,23.4,65.9,23.3c0,0.2-0.1,0.4-0.2,0.5
	c-0.1,0.1-0.3,0.1-0.4,0.1L58.6,23c-0.1,0-0.3-0.1-0.4-0.2c-0.1-0.1-0.1-0.3-0.1-0.4c0-0.1,0.1-0.3,0.2-0.4c0.1-0.1,0.3-0.1,0.4-0.1
	l6.6,0.9c0.1,0,0.3,0.1,0.3,0.2C65.8,23.1,65.9,23.2,65.9,23.3z M62.5,35.6c0,0.1,0,0.2-0.1,0.3c0,0.1-0.1,0.2-0.2,0.2
	c-0.1,0.1-0.2,0.1-0.3,0.1c-0.1,0-0.2,0-0.3,0l-6.1-2.6c-0.1-0.1-0.2-0.2-0.3-0.3c-0.1-0.1-0.1-0.3,0-0.4c0.1-0.1,0.2-0.2,0.3-0.3
	c0.1-0.1,0.3-0.1,0.4,0l6.1,2.6c0.1,0,0.2,0.1,0.3,0.2C62.5,35.4,62.5,35.5,62.5,35.6L62.5,35.6z M57.3,56.7c0,0.1,0,0.2-0.1,0.3
	c-0.1,0.1-0.2,0.2-0.3,0.2c-0.1,0-0.2,0.1-0.3,0s-0.2-0.1-0.3-0.2L46.2,47c-0.1-0.1-0.1-0.2-0.1-0.4c0-0.1,0.1-0.3,0.2-0.4
	c0.1-0.1,0.2-0.2,0.4-0.2c0.1,0,0.3,0,0.4,0.1l10.1,10.1c0.1,0.1,0.1,0.1,0.1,0.2C57.3,56.6,57.3,56.7,57.3,56.7L57.3,56.7z
	 M56.1,46.6c0,0.1,0,0.2-0.1,0.3C56,47,55.9,47,55.8,47.1c-0.1,0-0.2,0.1-0.3,0.1c-0.1,0-0.2-0.1-0.3-0.1L49.9,43
	c-0.1,0-0.1-0.1-0.1-0.2c0-0.1-0.1-0.1-0.1-0.2c0-0.1,0-0.1,0-0.2c0-0.1,0.1-0.1,0.1-0.2c0-0.1,0.1-0.1,0.2-0.1
	c0.1,0,0.1-0.1,0.2-0.1c0.1,0,0.1,0,0.2,0c0.1,0,0.1,0.1,0.2,0.1l5.3,4.1c0.1,0.1,0.1,0.1,0.2,0.2C56.1,46.4,56.1,46.5,56.1,46.6
	L56.1,46.6z M54.9,16.6c0,10.2-4.1,19.9-11.2,27.1c-7.2,7.2-16.9,11.2-27.1,11.2c-0.1,0-0.3-0.1-0.4-0.2c-0.1-0.1-0.2-0.2-0.2-0.4
	c0-0.1,0.1-0.3,0.2-0.4c0.1-0.1,0.2-0.2,0.4-0.2c9.9,0,19.3-3.9,26.3-10.9c7-7,10.9-16.4,10.9-26.3c0-0.2,0.1-0.3,0.2-0.4
	c0.1-0.1,0.3-0.2,0.4-0.2c0.2,0,0.3,0.1,0.4,0.2C54.8,16.3,54.9,16.4,54.9,16.6L54.9,16.6z M47.4,55.4c0,0.1,0,0.2-0.1,0.3
	c-0.1,0.1-0.2,0.2-0.3,0.2c-0.1,0-0.2,0-0.3,0c-0.1,0-0.2-0.1-0.3-0.2l-4.1-5.2c0-0.1-0.1-0.1-0.1-0.2c0-0.1,0-0.1,0-0.2
	c0-0.1,0-0.1,0.1-0.2c0-0.1,0.1-0.1,0.1-0.2c0.1,0,0.1-0.1,0.2-0.1c0.1,0,0.1,0,0.2,0c0.1,0,0.1,0,0.2,0.1c0.1,0,0.1,0.1,0.2,0.1
	l4.1,5.2C47.3,55.1,47.4,55.2,47.4,55.4z M45.5,65.8c0,0.1,0,0.2-0.1,0.3c-0.1,0.1-0.2,0.2-0.3,0.2c-0.1,0-0.2,0-0.4,0
	c-0.1,0-0.2-0.1-0.3-0.2l-7.1-12.3c-0.1-0.1-0.1-0.3-0.1-0.4c0-0.1,0.1-0.3,0.3-0.3c0.1-0.1,0.3-0.1,0.4-0.1c0.1,0,0.3,0.1,0.3,0.3
	l7.1,12.3C45.5,65.6,45.5,65.7,45.5,65.8z M43.1,16.6c0,7-2.8,13.8-7.8,18.8c-5,5-11.7,7.8-18.8,7.8c-0.2,0-0.3-0.1-0.4-0.2
	c-0.1-0.1-0.2-0.3-0.2-0.4s0.1-0.3,0.2-0.4s0.3-0.2,0.4-0.2c3.8,0,7.5-0.8,10.9-2.4c0,0,0,0,0,0l-4.3-16.4c0-0.1,0-0.2,0-0.3
	c0-0.1,0.1-0.2,0.1-0.3c0.1-0.1,0.2-0.1,0.3-0.1c0.1,0,0.2,0,0.3,0l16.1,4.3C41.3,23.5,42,20,42,16.6c0-0.2,0.1-0.3,0.2-0.4
	s0.3-0.2,0.4-0.2c0.2,0,0.3,0.1,0.4,0.2S43.1,16.4,43.1,16.6L43.1,16.6z M36.3,61.9c0,0.1,0,0.3-0.1,0.4c-0.1,0.1-0.2,0.2-0.3,0.2
	c-0.1,0-0.3,0-0.4-0.1s-0.2-0.2-0.3-0.3L32.6,56c0-0.1,0-0.1,0-0.2c0-0.1,0-0.1,0-0.2c0-0.1,0.1-0.1,0.1-0.2
	c0.1-0.1,0.1-0.1,0.2-0.1c0.1,0,0.1,0,0.2,0c0.1,0,0.1,0,0.2,0c0.1,0,0.1,0.1,0.2,0.1c0.1,0.1,0.1,0.1,0.1,0.2l2.6,6.1
	C36.2,61.7,36.3,61.8,36.3,61.9z M31.8,71.4c0,0.1-0.1,0.3-0.1,0.4c-0.1,0.1-0.2,0.2-0.4,0.2c-0.1,0-0.3,0-0.4-0.1
	c-0.1-0.1-0.2-0.2-0.2-0.3L27,57.8c0-0.1,0-0.1,0-0.2c0-0.1,0-0.1,0.1-0.2c0-0.1,0.1-0.1,0.1-0.2c0.1,0,0.1-0.1,0.2-0.1
	c0.1,0,0.1,0,0.2,0c0.1,0,0.1,0,0.2,0.1c0.1,0,0.1,0.1,0.2,0.1c0,0.1,0.1,0.1,0.1,0.2l3.7,13.8C31.8,71.3,31.8,71.4,31.8,71.4z
	 M24.1,65.3c0,0.1-0.1,0.3-0.2,0.4c-0.1,0.1-0.2,0.2-0.4,0.2c-0.1,0-0.3,0-0.4-0.1c-0.1-0.1-0.2-0.2-0.2-0.4L22,58.8
	c0-0.1,0-0.3,0.1-0.4c0.1-0.1,0.2-0.2,0.4-0.2c0.1,0,0.3,0,0.4,0.1c0.1,0.1,0.2,0.2,0.2,0.4L24.1,65.3
	C24.1,65.2,24.1,65.2,24.1,65.3z"/>
<rect x="11.5" y="258" class="st0" width="42.5" height="41.8"/>
<path class="st2" d="M39,283.5c-2.5-4.8-6.5-8.6-11.3-11l-4,15L39,283.5z M31.3,240c0.1,0,0.2,0,0.3,0.1c0.1,0,0.1,0.1,0.2,0.2
	c0.1,0.1,0.1,0.1,0.1,0.2c0,0.1,0,0.2,0,0.3l-3.7,13.8c0,0.1-0.1,0.3-0.3,0.3c-0.1,0.1-0.3,0.1-0.4,0.1c-0.1,0-0.3-0.1-0.3-0.3
	c-0.1-0.1-0.1-0.3-0.1-0.4l3.7-13.8c0-0.1,0.1-0.2,0.2-0.3C31,240,31.1,240,31.3,240z M45,245.7c0.1,0,0.2,0,0.3,0.1
	c0.1,0,0.2,0.1,0.2,0.2c0,0.1,0.1,0.2,0.1,0.3c0,0.1,0,0.2-0.1,0.3l-7.1,12.3c0,0.1-0.1,0.1-0.1,0.2c-0.1,0-0.1,0.1-0.2,0.1
	c-0.1,0-0.1,0-0.2,0c-0.1,0-0.1,0-0.2-0.1c-0.1,0-0.1-0.1-0.2-0.1c0-0.1-0.1-0.1-0.1-0.2c0-0.1,0-0.1,0-0.2c0-0.1,0-0.1,0.1-0.2
	l7.1-12.3c0-0.1,0.1-0.2,0.2-0.2C44.8,245.7,44.9,245.7,45,245.7z M23.3,246.1C23.4,246.1,23.4,246.1,23.3,246.1
	c0.2,0,0.4,0.1,0.5,0.2c0.1,0.1,0.1,0.3,0.1,0.4l-0.9,6.6c0,0.1-0.1,0.3-0.2,0.4c-0.1,0.1-0.3,0.1-0.4,0.1c-0.1,0-0.3-0.1-0.4-0.2
	s-0.1-0.3-0.1-0.4l0.9-6.6c0-0.1,0.1-0.3,0.2-0.4C23.1,246.2,23.2,246.1,23.3,246.1z M35.6,249.5c0.1,0,0.2,0,0.3,0.1
	c0.1,0,0.2,0.1,0.2,0.2c0.1,0.1,0.1,0.2,0.1,0.3c0,0.1,0,0.2,0,0.3l-2.6,6.1c-0.1,0.1-0.2,0.2-0.3,0.3s-0.3,0.1-0.4,0
	c-0.1-0.1-0.2-0.2-0.3-0.3c-0.1-0.1-0.1-0.3,0-0.4l2.6-6.1c0-0.1,0.1-0.2,0.2-0.3C35.4,249.5,35.5,249.5,35.6,249.5L35.6,249.5z
	 M56.7,254.7c0.1,0,0.2,0,0.3,0.1c0.1,0.1,0.2,0.1,0.2,0.3c0,0.1,0.1,0.2,0,0.3s-0.1,0.2-0.2,0.3L47,265.8c-0.1,0.1-0.2,0.1-0.4,0.1
	c-0.1,0-0.3-0.1-0.4-0.2c-0.1-0.1-0.2-0.2-0.2-0.4c0-0.1,0-0.3,0.1-0.4l10.1-10.1c0.1-0.1,0.1-0.1,0.2-0.1
	C56.6,254.7,56.7,254.7,56.7,254.7L56.7,254.7z M46.6,255.9c0.1,0,0.2,0,0.3,0.1s0.2,0.1,0.2,0.2c0,0.1,0.1,0.2,0.1,0.3
	c0,0.1-0.1,0.2-0.1,0.3l-4.1,5.3c0,0.1-0.1,0.1-0.2,0.1c-0.1,0-0.1,0.1-0.2,0.1c-0.1,0-0.1,0-0.2,0c-0.1,0-0.1-0.1-0.2-0.1
	c-0.1,0-0.1-0.1-0.1-0.2c0-0.1-0.1-0.1-0.1-0.2c0-0.1,0-0.1,0-0.2c0-0.1,0.1-0.1,0.1-0.2l4.1-5.3c0.1-0.1,0.1-0.1,0.2-0.2
	C46.4,255.9,46.5,255.9,46.6,255.9L46.6,255.9z M16.6,257.1c10.2,0,19.9,4.1,27.1,11.2c7.2,7.2,11.2,16.9,11.2,27.1
	c0,0.1-0.1,0.3-0.2,0.4c-0.1,0.1-0.2,0.2-0.4,0.2c-0.1,0-0.3-0.1-0.4-0.2c-0.1-0.1-0.2-0.2-0.2-0.4c0-9.9-3.9-19.3-10.9-26.3
	c-7-7-16.4-10.9-26.3-10.9c-0.2,0-0.3-0.1-0.4-0.2c-0.1-0.1-0.2-0.2-0.2-0.4c0-0.1,0.1-0.3,0.2-0.4
	C16.3,257.2,16.4,257.1,16.6,257.1L16.6,257.1z M55.4,264.6c0.1,0,0.2,0,0.3,0.1c0.1,0.1,0.2,0.2,0.2,0.3c0,0.1,0,0.2,0,0.3
	c0,0.1-0.1,0.2-0.2,0.3l-5.2,4.1c-0.1,0-0.1,0.1-0.2,0.1c-0.1,0-0.1,0-0.2,0c-0.1,0-0.1,0-0.2-0.1c-0.1,0-0.1-0.1-0.2-0.1
	c0-0.1-0.1-0.1-0.1-0.2c0-0.1,0-0.1,0-0.2c0-0.1,0-0.1,0.1-0.2c0-0.1,0.1-0.1,0.1-0.2l5.2-4.1C55.1,264.7,55.2,264.6,55.4,264.6z
	 M65.8,266.5c0.1,0,0.2,0,0.3,0.1s0.2,0.2,0.2,0.3c0,0.1,0,0.2,0,0.4c0,0.1-0.1,0.2-0.2,0.3l-12.3,7.1c-0.1,0.1-0.3,0.1-0.4,0.1
	c-0.1,0-0.3-0.1-0.3-0.3c-0.1-0.1-0.1-0.3-0.1-0.4c0-0.1,0.1-0.3,0.3-0.3l12.3-7.1C65.6,266.5,65.7,266.5,65.8,266.5z M16.6,268.9
	c7,0,13.8,2.8,18.8,7.8c5,5,7.8,11.7,7.8,18.8c0,0.1-0.1,0.3-0.2,0.4c-0.1,0.1-0.3,0.2-0.4,0.2s-0.3-0.1-0.4-0.2
	c-0.1-0.1-0.2-0.3-0.2-0.4c0-3.8-0.8-7.5-2.4-10.9c0,0,0,0,0,0l-16.4,4.3c-0.1,0-0.2,0-0.3,0c-0.1,0-0.2-0.1-0.3-0.1
	c-0.1-0.1-0.1-0.2-0.1-0.3c0-0.1,0-0.2,0-0.3l4.3-16.1c-3.2-1.4-6.6-2.1-10.1-2.1c-0.2,0-0.3-0.1-0.4-0.2c-0.1-0.1-0.2-0.2-0.2-0.4
	c0-0.2,0.1-0.3,0.2-0.4C16.3,268.9,16.4,268.9,16.6,268.9L16.6,268.9z M61.9,275.7c0.1,0,0.3,0,0.4,0.1c0.1,0.1,0.2,0.2,0.2,0.3
	c0,0.1,0,0.3-0.1,0.4s-0.2,0.2-0.3,0.3l-6.1,2.6c-0.1,0-0.1,0-0.2,0c-0.1,0-0.1,0-0.2,0c-0.1,0-0.1-0.1-0.2-0.1
	c-0.1-0.1-0.1-0.1-0.1-0.2c0-0.1,0-0.1,0-0.2c0-0.1,0-0.2,0-0.2c0-0.1,0.1-0.1,0.1-0.2c0.1-0.1,0.1-0.1,0.2-0.1l6.1-2.6
	C61.7,275.8,61.8,275.7,61.9,275.7z M71.4,280.2c0.1,0,0.3,0.1,0.4,0.1c0.1,0.1,0.2,0.2,0.2,0.4c0,0.1,0,0.3-0.1,0.4
	c-0.1,0.1-0.2,0.2-0.3,0.2L57.8,285c-0.1,0-0.1,0-0.2,0c-0.1,0-0.1,0-0.2-0.1c-0.1,0-0.1-0.1-0.2-0.1s-0.1-0.1-0.1-0.2
	c0-0.1,0-0.1,0-0.2c0-0.1,0-0.1,0.1-0.2c0-0.1,0.1-0.1,0.1-0.2c0.1,0,0.1-0.1,0.2-0.1l13.8-3.7C71.3,280.2,71.4,280.2,71.4,280.2z
	 M65.3,287.9c0.1,0,0.3,0.1,0.4,0.2c0.1,0.1,0.2,0.2,0.2,0.4c0,0.1,0,0.3-0.1,0.4c-0.1,0.1-0.2,0.2-0.4,0.2l-6.6,0.9
	c-0.1,0-0.3,0-0.4-0.1c-0.1-0.1-0.2-0.2-0.2-0.4c0-0.1,0-0.3,0.1-0.4c0.1-0.1,0.2-0.2,0.4-0.2L65.3,287.9
	C65.2,287.9,65.2,287.9,65.3,287.9z"/>
<rect x="258" y="258" class="st0" width="42.2" height="42.5"/>
<path class="st2" d="M283.5,273c-4.8,2.5-8.6,6.5-11,11.3l15,4L283.5,273z M240,280.7c0-0.1,0-0.2,0.1-0.3c0-0.1,0.1-0.1,0.2-0.2
	s0.1-0.1,0.2-0.1c0.1,0,0.2,0,0.3,0l13.8,3.7c0.1,0,0.3,0.1,0.3,0.3c0.1,0.1,0.1,0.3,0.1,0.4c0,0.1-0.1,0.3-0.3,0.3
	c-0.1,0.1-0.3,0.1-0.4,0.1l-13.8-3.7c-0.1,0-0.2-0.1-0.3-0.2C240,281,240,280.9,240,280.7z M245.7,267c0-0.1,0-0.2,0.1-0.3
	c0-0.1,0.1-0.2,0.2-0.2c0.1,0,0.2-0.1,0.3-0.1c0.1,0,0.2,0,0.3,0.1l12.3,7.1c0.1,0,0.1,0.1,0.2,0.1c0,0.1,0.1,0.1,0.1,0.2
	c0,0.1,0,0.1,0,0.2c0,0.1,0,0.1-0.1,0.2c0,0.1-0.1,0.1-0.1,0.2c-0.1,0-0.1,0.1-0.2,0.1c-0.1,0-0.1,0-0.2,0c-0.1,0-0.1,0-0.2-0.1
	l-12.3-7.1c-0.1-0.1-0.2-0.1-0.2-0.2C245.7,267.2,245.7,267.1,245.7,267z M246.1,288.7C246.1,288.6,246.1,288.6,246.1,288.7
	c0-0.2,0.1-0.4,0.2-0.5c0.1-0.1,0.3-0.1,0.4-0.1l6.6,0.9c0.1,0,0.3,0.1,0.4,0.2c0.1,0.1,0.1,0.3,0.1,0.4c0,0.1-0.1,0.3-0.2,0.4
	c-0.1,0.1-0.3,0.1-0.4,0.1l-6.6-0.9c-0.1,0-0.3-0.1-0.4-0.2C246.2,288.9,246.1,288.8,246.1,288.7z M249.5,276.4c0-0.1,0-0.2,0.1-0.3
	c0-0.1,0.1-0.2,0.2-0.2c0.1-0.1,0.2-0.1,0.3-0.1c0.1,0,0.2,0,0.3,0l6.1,2.6c0.1,0.1,0.2,0.2,0.3,0.3c0.1,0.1,0.1,0.3,0,0.4
	c-0.1,0.1-0.2,0.2-0.3,0.3c-0.1,0.1-0.3,0.1-0.4,0l-6.1-2.6c-0.1,0-0.2-0.1-0.3-0.2C249.5,276.6,249.5,276.5,249.5,276.4
	L249.5,276.4z M254.7,255.3c0-0.1,0-0.2,0.1-0.3c0.1-0.1,0.1-0.2,0.3-0.2s0.2-0.1,0.3,0s0.2,0.1,0.3,0.2l10.1,10.1
	c0.1,0.1,0.1,0.2,0.1,0.4c0,0.1-0.1,0.3-0.2,0.4c-0.1,0.1-0.2,0.2-0.4,0.2c-0.1,0-0.3,0-0.4-0.1l-10.1-10.1
	c-0.1-0.1-0.1-0.1-0.1-0.2C254.7,255.4,254.7,255.3,254.7,255.3L254.7,255.3z M255.9,265.4c0-0.1,0-0.2,0.1-0.3s0.1-0.2,0.2-0.2
	c0.1,0,0.2-0.1,0.3-0.1c0.1,0,0.2,0.1,0.3,0.1l5.3,4.1c0.1,0,0.1,0.1,0.1,0.2c0,0.1,0.1,0.1,0.1,0.2c0,0.1,0,0.1,0,0.2
	c0,0.1-0.1,0.1-0.1,0.2c0,0.1-0.1,0.1-0.2,0.1c-0.1,0-0.1,0.1-0.2,0.1c-0.1,0-0.1,0-0.2,0c-0.1,0-0.1-0.1-0.2-0.1l-5.3-4.1
	c-0.1-0.1-0.1-0.1-0.2-0.2C255.9,265.6,255.9,265.5,255.9,265.4L255.9,265.4z M257.1,295.4c0-10.2,4.1-19.9,11.2-27.1
	c7.2-7.2,16.9-11.2,27.1-11.2c0.1,0,0.3,0.1,0.4,0.2c0.1,0.1,0.2,0.2,0.2,0.4c0,0.1-0.1,0.3-0.2,0.4c-0.1,0.1-0.2,0.2-0.4,0.2
	c-9.9,0-19.3,3.9-26.3,10.9c-7,7-10.9,16.4-10.9,26.3c0,0.1-0.1,0.3-0.2,0.4c-0.1,0.1-0.2,0.2-0.4,0.2c-0.1,0-0.3-0.1-0.4-0.2
	C257.2,295.7,257.1,295.6,257.1,295.4L257.1,295.4z M264.6,256.6c0-0.1,0-0.2,0.1-0.3s0.2-0.2,0.3-0.2c0.1,0,0.2,0,0.3,0
	c0.1,0,0.2,0.1,0.3,0.2l4.1,5.2c0,0.1,0.1,0.1,0.1,0.2c0,0.1,0,0.1,0,0.2c0,0.1,0,0.1-0.1,0.2c0,0.1-0.1,0.1-0.1,0.2
	c-0.1,0-0.1,0.1-0.2,0.1c-0.1,0-0.1,0-0.2,0c-0.1,0-0.1,0-0.2-0.1c-0.1,0-0.1-0.1-0.2-0.1l-4.1-5.2
	C264.7,256.9,264.6,256.8,264.6,256.6z M266.5,246.2c0-0.1,0-0.2,0.1-0.3c0.1-0.1,0.2-0.2,0.3-0.2c0.1,0,0.2,0,0.4,0
	c0.1,0,0.2,0.1,0.3,0.2l7.1,12.3c0.1,0.1,0.1,0.3,0.1,0.4c0,0.1-0.1,0.3-0.3,0.3c-0.1,0.1-0.3,0.1-0.4,0.1c-0.1,0-0.3-0.1-0.3-0.3
	l-7.1-12.3C266.5,246.4,266.5,246.3,266.5,246.2z M268.9,295.4c0-7,2.8-13.8,7.8-18.8c5-5,11.7-7.8,18.8-7.8c0.1,0,0.3,0.1,0.4,0.2
	c0.1,0.1,0.2,0.2,0.2,0.4c0,0.1-0.1,0.3-0.2,0.4c-0.1,0.1-0.3,0.2-0.4,0.2c-3.8,0-7.5,0.8-10.9,2.4c0,0,0,0,0,0l4.3,16.4
	c0,0.1,0,0.2,0,0.3s-0.1,0.2-0.1,0.3c-0.1,0.1-0.2,0.1-0.3,0.1c-0.1,0-0.2,0-0.3,0l-16.1-4.3c-1.4,3.2-2.1,6.6-2.1,10.1
	c0,0.2-0.1,0.3-0.2,0.4c-0.1,0.1-0.2,0.2-0.4,0.2c-0.2,0-0.3-0.1-0.4-0.2C268.9,295.7,268.9,295.6,268.9,295.4L268.9,295.4z
	 M275.7,250.1c0-0.1,0-0.3,0.1-0.4c0.1-0.1,0.2-0.2,0.3-0.2c0.1,0,0.3,0,0.4,0.1c0.1,0.1,0.2,0.2,0.3,0.3l2.6,6.1c0,0.1,0,0.1,0,0.2
	c0,0.1,0,0.1,0,0.2c0,0.1-0.1,0.1-0.1,0.2c-0.1,0.1-0.1,0.1-0.2,0.1c-0.1,0-0.1,0-0.2,0c-0.1,0-0.2,0-0.2,0c-0.1,0-0.1-0.1-0.2-0.1
	c-0.1-0.1-0.1-0.1-0.1-0.2l-2.6-6.1C275.8,250.3,275.7,250.2,275.7,250.1z M280.2,240.6c0-0.1,0.1-0.3,0.1-0.4
	c0.1-0.1,0.2-0.2,0.4-0.2c0.1,0,0.3,0,0.4,0.1c0.1,0.1,0.2,0.2,0.2,0.3l3.7,13.8c0,0.1,0,0.1,0,0.2c0,0.1,0,0.1-0.1,0.2
	c0,0.1-0.1,0.1-0.1,0.2c-0.1,0-0.1,0.1-0.2,0.1s-0.1,0-0.2,0c-0.1,0-0.1,0-0.2-0.1c-0.1,0-0.1-0.1-0.2-0.1c0-0.1-0.1-0.1-0.1-0.2
	l-3.7-13.8C280.2,240.7,280.2,240.6,280.2,240.6z M287.9,246.7c0-0.1,0.1-0.3,0.2-0.4c0.1-0.1,0.2-0.2,0.4-0.2c0.1,0,0.3,0,0.4,0.1
	c0.1,0.1,0.2,0.2,0.2,0.4l0.9,6.6c0,0.1,0,0.3-0.1,0.4c-0.1,0.1-0.2,0.2-0.4,0.2c-0.1,0-0.3,0-0.4-0.1c-0.1-0.1-0.2-0.2-0.2-0.4
	L287.9,246.7C287.9,246.8,287.9,246.8,287.9,246.7z"/>
</svg>
