<svg width="2560" height="15" viewBox="0 0 2560 15" fill="none" xmlns="http://www.w3.org/2000/svg">
<g filter="url(#filter0_n_262_495)">
<path d="M2560 1.36745L2554.55 1.38424C2522.34 1.19468 2488.69 1.24757 2470.57 1.11859C2442.52 0.919288 2431.04 0.568647 2400.04 0.451418C2392.64 0.424714 2383.79 -0.0820276 2377.51 0.0117258C2370.71 0.117772 2368.08 0.96331 2362.4 1.22698C2353.05 1.66338 2303.28 1.27406 2282.21 1.44987C2255.82 1.66983 2218.98 2.66408 2192.16 2.85749C2137.89 3.25005 2061.04 2.41405 2003.98 3.04984C1986.82 3.24327 1981.4 4.02633 1972.92 4.04983C1969.06 4.06155 1950.23 2.89807 1922.77 2.81014C1796.74 2.40572 1657.73 3.15185 1537.76 2.89103C1475.11 2.75327 1428.5 2.51997 1364.57 2.88338C1357.33 2.92444 1352.12 3.32612 1349.81 3.32612C1345.26 3.32821 1339.74 2.73872 1332.13 2.63911C1292.17 2.12038 1198.75 2.63431 1156.43 2.92153C1150.32 2.96256 1143.23 3.46946 1130.15 3.46962C1118.35 3.46962 1122.1 2.7184 1108.05 2.60703C1042.89 2.09125 925.597 2.21286 855.018 2.13374C743.302 2.0077 624.442 2.3064 512.244 2.20089C477.812 2.16856 423.055 1.3539 387.927 1.79935C381.012 1.88751 377.945 2.57357 367.65 2.61461C362.379 2.63431 340.732 1.92785 323.902 1.85736C262.976 1.60824 200.702 2.538 143.53 2.86039C127.655 2.95123 92.8452 2.32452 72.197 2.32452C52.0503 2.32453 22.1382 2.91165 4.0564 3.05428L1.27796e-06 3.06649L0.0104988 7.81606C0.0263677 10.6119 -0.000975947 9.25473 3.73489e-07 11.5123L7.19971 11.5122C25.0432 11.5872 45.3318 12.3305 67.6396 12.3473C75.0942 12.3502 80.1379 11.8453 85.6079 11.8863C91.3989 11.9304 96.0142 12.5549 108.938 12.6634C121.113 12.7629 145.836 12.168 155.436 12.2969C167.277 12.4551 168.147 13.1979 171.999 13.3015C184.764 13.6386 228.099 13.1626 244.296 14.329C247.46 13.397 287.7 12.3884 301.055 12.4206C308.613 12.4385 315.378 12.8823 323.741 12.9321C370.706 13.2074 366.107 11.9233 382.345 11.668C384.329 11.6357 421.139 11.527 423.162 11.5474C434.369 11.6646 441.079 13.1734 460.165 12.8634L472.612 11.1489C483.284 11.3101 499.974 11.1574 508.931 11.3245C516.593 11.4652 517.127 11.9802 519.591 12.042C531.98 12.3468 557.094 11.8573 573.077 13.1321L572.956 12.01L596.767 11.3565L625.9 12.3962C624.941 11.198 652.992 11.6763 663.985 11.4008C668.482 11.2863 668.54 10.914 671.916 10.8466L676.402 10.7562C705.268 10.1725 745.584 9.35737 762.443 11.1749C818.005 8.83901 812.271 14.1115 844.718 11.0665L863.27 10.8756C871.26 11.9863 868.794 12.2219 895.072 12.6527C921.351 13.0835 941.151 12.5575 962.71 13.1993L970.099 13.2054C965.868 11.8924 1016.13 9.75693 1013.12 12.1718C1034.65 12.6114 1056.17 13.0498 1077.69 13.4894C1064.13 12.2702 1105.9 11.0165 1098.93 13.1413L1116.74 12.2146L1128.43 13.065L1161.73 12.326C1159.86 10.8577 1169.47 11.8194 1186.31 11.752C1196.55 11.7108 1206.31 11.3734 1212.05 11.3734C1214.83 11.3738 1215.37 11.8308 1220.14 11.8955C1246.47 12.253 1256.56 12.3415 1284.87 12.0925C1309.21 15.1697 1318.77 12.5374 1332.45 12.2619C1343.33 12.0393 1365.96 12.0803 1378.89 12.1184C1391.81 12.1565 1470.82 12.8395 1481.12 13.0329C1492 13.2383 1516.88 14.7498 1526.59 14.5947C1540.16 12.0569 1572.77 13.1 1610.41 12.5932C1619.64 15.4679 1654.72 13.8778 1686.79 13.8482C1704.86 13.8335 1713.62 14.3921 1726.28 14.5123C1745.85 14.6965 1760.49 13.6069 1781.13 14.181C1756.94 10.1454 1821.61 12.1531 1792.39 14.7322C1810.94 14.8933 1830.36 14.9523 1848.97 14.8146C1890.64 14.5069 1936.89 13.6918 1981.94 13.9322C1998.18 14.0203 1999.95 15.0284 2020.32 14.9993C2023 14.9935 2070.48 14.5872 2073.05 14.5337C2079.48 14.3959 2076.87 13.6601 2088.83 13.6162C2097.03 13.5842 2105.61 14.0941 2111.94 14.0971C2119.66 14.1 2125.52 13.4641 2136.99 13.4788C2146.75 13.4909 2151.31 14.1608 2161.93 14.0085L2156.25 13.0269C2158.89 12.8821 2161.53 12.738 2164.18 12.5933C2185.25 12.1304 2210.94 12.8455 2227.46 12.6727C2243.39 12.5056 2248.11 11.1893 2274.66 11.0574C2290.85 10.9754 2304.53 11.5201 2313.43 11.491C2321.37 11.4675 2325.83 10.9627 2333.44 10.9246C2342.73 10.8783 2365.89 11.7195 2381.17 11.4238L2416.3 13.3368C2445.58 12.1267 2462.59 12.4528 2495.08 12.1979C2505.16 12.1188 2514.87 11.6729 2522.75 11.6345C2527.3 11.6126 2538.13 11.7975 2550.9 12.004L2560 12.004L2560 1.36745Z" fill="#06070C"/>
<path d="M2560 1.36745L2554.55 1.38424C2522.34 1.19468 2488.69 1.24757 2470.57 1.11859C2442.52 0.919288 2431.04 0.568647 2400.04 0.451418C2392.64 0.424714 2383.79 -0.0820276 2377.51 0.0117258C2370.71 0.117772 2368.08 0.96331 2362.4 1.22698C2353.05 1.66338 2303.28 1.27406 2282.21 1.44987C2255.82 1.66983 2218.98 2.66408 2192.16 2.85749C2137.89 3.25005 2061.04 2.41405 2003.98 3.04984C1986.82 3.24327 1981.4 4.02633 1972.92 4.04983C1969.06 4.06155 1950.23 2.89807 1922.77 2.81014C1796.74 2.40572 1657.73 3.15185 1537.76 2.89103C1475.11 2.75327 1428.5 2.51997 1364.57 2.88338C1357.33 2.92444 1352.12 3.32612 1349.81 3.32612C1345.26 3.32821 1339.74 2.73872 1332.13 2.63911C1292.17 2.12038 1198.75 2.63431 1156.43 2.92153C1150.32 2.96256 1143.23 3.46946 1130.15 3.46962C1118.35 3.46962 1122.1 2.7184 1108.05 2.60703C1042.89 2.09125 925.597 2.21286 855.018 2.13374C743.302 2.0077 624.442 2.3064 512.244 2.20089C477.812 2.16856 423.055 1.3539 387.927 1.79935C381.012 1.88751 377.945 2.57357 367.65 2.61461C362.379 2.63431 340.732 1.92785 323.902 1.85736C262.976 1.60824 200.702 2.538 143.53 2.86039C127.655 2.95123 92.8452 2.32452 72.197 2.32452C52.0503 2.32453 22.1382 2.91165 4.0564 3.05428L1.27796e-06 3.06649L0.0104988 7.81606C0.0263677 10.6119 -0.000975947 9.25473 3.73489e-07 11.5123L7.19971 11.5122C25.0432 11.5872 45.3318 12.3305 67.6396 12.3473C75.0942 12.3502 80.1379 11.8453 85.6079 11.8863C91.3989 11.9304 96.0142 12.5549 108.938 12.6634C121.113 12.7629 145.836 12.168 155.436 12.2969C167.277 12.4551 168.147 13.1979 171.999 13.3015C184.764 13.6386 228.099 13.1626 244.296 14.329C247.46 13.397 287.7 12.3884 301.055 12.4206C308.613 12.4385 315.378 12.8823 323.741 12.9321C370.706 13.2074 366.107 11.9233 382.345 11.668C384.329 11.6357 421.139 11.527 423.162 11.5474C434.369 11.6646 441.079 13.1734 460.165 12.8634L472.612 11.1489C483.284 11.3101 499.974 11.1574 508.931 11.3245C516.593 11.4652 517.127 11.9802 519.591 12.042C531.98 12.3468 557.094 11.8573 573.077 13.1321L572.956 12.01L596.767 11.3565L625.9 12.3962C624.941 11.198 652.992 11.6763 663.985 11.4008C668.482 11.2863 668.54 10.914 671.916 10.8466L676.402 10.7562C705.268 10.1725 745.584 9.35737 762.443 11.1749C818.005 8.83901 812.271 14.1115 844.718 11.0665L863.27 10.8756C871.26 11.9863 868.794 12.2219 895.072 12.6527C921.351 13.0835 941.151 12.5575 962.71 13.1993L970.099 13.2054C965.868 11.8924 1016.13 9.75693 1013.12 12.1718C1034.65 12.6114 1056.17 13.0498 1077.69 13.4894C1064.13 12.2702 1105.9 11.0165 1098.93 13.1413L1116.74 12.2146L1128.43 13.065L1161.73 12.326C1159.86 10.8577 1169.47 11.8194 1186.31 11.752C1196.55 11.7108 1206.31 11.3734 1212.05 11.3734C1214.83 11.3738 1215.37 11.8308 1220.14 11.8955C1246.47 12.253 1256.56 12.3415 1284.87 12.0925C1309.21 15.1697 1318.77 12.5374 1332.45 12.2619C1343.33 12.0393 1365.96 12.0803 1378.89 12.1184C1391.81 12.1565 1470.82 12.8395 1481.12 13.0329C1492 13.2383 1516.88 14.7498 1526.59 14.5947C1540.16 12.0569 1572.77 13.1 1610.41 12.5932C1619.64 15.4679 1654.72 13.8778 1686.79 13.8482C1704.86 13.8335 1713.62 14.3921 1726.28 14.5123C1745.85 14.6965 1760.49 13.6069 1781.13 14.181C1756.94 10.1454 1821.61 12.1531 1792.39 14.7322C1810.94 14.8933 1830.36 14.9523 1848.97 14.8146C1890.64 14.5069 1936.89 13.6918 1981.94 13.9322C1998.18 14.0203 1999.95 15.0284 2020.32 14.9993C2023 14.9935 2070.48 14.5872 2073.05 14.5337C2079.48 14.3959 2076.87 13.6601 2088.83 13.6162C2097.03 13.5842 2105.61 14.0941 2111.94 14.0971C2119.66 14.1 2125.52 13.4641 2136.99 13.4788C2146.75 13.4909 2151.31 14.1608 2161.93 14.0085L2156.25 13.0269C2158.89 12.8821 2161.53 12.738 2164.18 12.5933C2185.25 12.1304 2210.94 12.8455 2227.46 12.6727C2243.39 12.5056 2248.11 11.1893 2274.66 11.0574C2290.85 10.9754 2304.53 11.5201 2313.43 11.491C2321.37 11.4675 2325.83 10.9627 2333.44 10.9246C2342.73 10.8783 2365.89 11.7195 2381.17 11.4238L2416.3 13.3368C2445.58 12.1267 2462.59 12.4528 2495.08 12.1979C2505.16 12.1188 2514.87 11.6729 2522.75 11.6345C2527.3 11.6126 2538.13 11.7975 2550.9 12.004L2560 12.004L2560 1.36745Z" fill="url(#paint0_linear_262_495)" style="mix-blend-mode:difference"/>
<path d="M2560 1.36745L2554.55 1.38424C2522.34 1.19468 2488.69 1.24757 2470.57 1.11859C2442.52 0.919288 2431.04 0.568647 2400.04 0.451418C2392.64 0.424714 2383.79 -0.0820276 2377.51 0.0117258C2370.71 0.117772 2368.08 0.96331 2362.4 1.22698C2353.05 1.66338 2303.28 1.27406 2282.21 1.44987C2255.82 1.66983 2218.98 2.66408 2192.16 2.85749C2137.89 3.25005 2061.04 2.41405 2003.98 3.04984C1986.82 3.24327 1981.4 4.02633 1972.92 4.04983C1969.06 4.06155 1950.23 2.89807 1922.77 2.81014C1796.74 2.40572 1657.73 3.15185 1537.76 2.89103C1475.11 2.75327 1428.5 2.51997 1364.57 2.88338C1357.33 2.92444 1352.12 3.32612 1349.81 3.32612C1345.26 3.32821 1339.74 2.73872 1332.13 2.63911C1292.17 2.12038 1198.75 2.63431 1156.43 2.92153C1150.32 2.96256 1143.23 3.46946 1130.15 3.46962C1118.35 3.46962 1122.1 2.7184 1108.05 2.60703C1042.89 2.09125 925.597 2.21286 855.018 2.13374C743.302 2.0077 624.442 2.3064 512.244 2.20089C477.812 2.16856 423.055 1.3539 387.927 1.79935C381.012 1.88751 377.945 2.57357 367.65 2.61461C362.379 2.63431 340.732 1.92785 323.902 1.85736C262.976 1.60824 200.702 2.538 143.53 2.86039C127.655 2.95123 92.8452 2.32452 72.197 2.32452C52.0503 2.32453 22.1382 2.91165 4.0564 3.05428L1.27796e-06 3.06649L0.0104988 7.81606C0.0263677 10.6119 -0.000975947 9.25473 3.73489e-07 11.5123L7.19971 11.5122C25.0432 11.5872 45.3318 12.3305 67.6396 12.3473C75.0942 12.3502 80.1379 11.8453 85.6079 11.8863C91.3989 11.9304 96.0142 12.5549 108.938 12.6634C121.113 12.7629 145.836 12.168 155.436 12.2969C167.277 12.4551 168.147 13.1979 171.999 13.3015C184.764 13.6386 228.099 13.1626 244.296 14.329C247.46 13.397 287.7 12.3884 301.055 12.4206C308.613 12.4385 315.378 12.8823 323.741 12.9321C370.706 13.2074 366.107 11.9233 382.345 11.668C384.329 11.6357 421.139 11.527 423.162 11.5474C434.369 11.6646 441.079 13.1734 460.165 12.8634L472.612 11.1489C483.284 11.3101 499.974 11.1574 508.931 11.3245C516.593 11.4652 517.127 11.9802 519.591 12.042C531.98 12.3468 557.094 11.8573 573.077 13.1321L572.956 12.01L596.767 11.3565L625.9 12.3962C624.941 11.198 652.992 11.6763 663.985 11.4008C668.482 11.2863 668.54 10.914 671.916 10.8466L676.402 10.7562C705.268 10.1725 745.584 9.35737 762.443 11.1749C818.005 8.83901 812.271 14.1115 844.718 11.0665L863.27 10.8756C871.26 11.9863 868.794 12.2219 895.072 12.6527C921.351 13.0835 941.151 12.5575 962.71 13.1993L970.099 13.2054C965.868 11.8924 1016.13 9.75693 1013.12 12.1718C1034.65 12.6114 1056.17 13.0498 1077.69 13.4894C1064.13 12.2702 1105.9 11.0165 1098.93 13.1413L1116.74 12.2146L1128.43 13.065L1161.73 12.326C1159.86 10.8577 1169.47 11.8194 1186.31 11.752C1196.55 11.7108 1206.31 11.3734 1212.05 11.3734C1214.83 11.3738 1215.37 11.8308 1220.14 11.8955C1246.47 12.253 1256.56 12.3415 1284.87 12.0925C1309.21 15.1697 1318.77 12.5374 1332.45 12.2619C1343.33 12.0393 1365.96 12.0803 1378.89 12.1184C1391.81 12.1565 1470.82 12.8395 1481.12 13.0329C1492 13.2383 1516.88 14.7498 1526.59 14.5947C1540.16 12.0569 1572.77 13.1 1610.41 12.5932C1619.64 15.4679 1654.72 13.8778 1686.79 13.8482C1704.86 13.8335 1713.62 14.3921 1726.28 14.5123C1745.85 14.6965 1760.49 13.6069 1781.13 14.181C1756.94 10.1454 1821.61 12.1531 1792.39 14.7322C1810.94 14.8933 1830.36 14.9523 1848.97 14.8146C1890.64 14.5069 1936.89 13.6918 1981.94 13.9322C1998.18 14.0203 1999.95 15.0284 2020.32 14.9993C2023 14.9935 2070.48 14.5872 2073.05 14.5337C2079.48 14.3959 2076.87 13.6601 2088.83 13.6162C2097.03 13.5842 2105.61 14.0941 2111.94 14.0971C2119.66 14.1 2125.52 13.4641 2136.99 13.4788C2146.75 13.4909 2151.31 14.1608 2161.93 14.0085L2156.25 13.0269C2158.89 12.8821 2161.53 12.738 2164.18 12.5933C2185.25 12.1304 2210.94 12.8455 2227.46 12.6727C2243.39 12.5056 2248.11 11.1893 2274.66 11.0574C2290.85 10.9754 2304.53 11.5201 2313.43 11.491C2321.37 11.4675 2325.83 10.9627 2333.44 10.9246C2342.73 10.8783 2365.89 11.7195 2381.17 11.4238L2416.3 13.3368C2445.58 12.1267 2462.59 12.4528 2495.08 12.1979C2505.16 12.1188 2514.87 11.6729 2522.75 11.6345C2527.3 11.6126 2538.13 11.7975 2550.9 12.004L2560 12.004L2560 1.36745Z" fill="url(#paint1_linear_262_495)"/>
</g>
<defs>
<filter id="filter0_n_262_495" x="0" y="0.000183105" width="2560" height="14.9998" filterUnits="userSpaceOnUse" color-interpolation-filters="sRGB">
<feFlood flood-opacity="0" result="BackgroundImageFix"/>
<feBlend mode="normal" in="SourceGraphic" in2="BackgroundImageFix" result="shape"/>
<feTurbulence type="fractalNoise" baseFrequency="6.6666665077209473 6.6666665077209473" stitchTiles="stitch" numOctaves="3" result="noise" seed="4089" />
<feColorMatrix in="noise" type="luminanceToAlpha" result="alphaNoise" />
<feComponentTransfer in="alphaNoise" result="coloredNoise1">
<feFuncA type="discrete" tableValues="0 0 0 0 0 0 0 0 0 0 0 0 0 0 0 0 0 0 1 1 1 1 1 1 1 1 1 1 1 1 1 0 0 0 0 0 0 0 0 0 0 0 0 0 0 0 0 0 0 0 0 0 0 0 0 0 0 0 0 0 0 0 0 0 0 0 0 0 0 0 0 0 0 0 0 0 0 0 0 0 0 0 0 0 0 0 0 0 0 0 0 0 0 0 0 0 0 0 0 0 "/>
</feComponentTransfer>
<feComposite operator="in" in2="shape" in="coloredNoise1" result="noise1Clipped" />
<feComponentTransfer in="alphaNoise" result="coloredNoise2">
<feFuncA type="discrete" tableValues="0 0 0 0 0 0 0 0 0 0 0 0 0 0 0 0 0 0 0 0 0 0 0 0 0 0 0 0 0 0 0 0 0 0 0 0 0 0 0 0 0 0 0 0 0 0 0 0 0 0 0 0 0 0 0 0 0 0 0 0 0 0 0 0 0 0 0 0 0 1 1 1 1 1 1 1 1 1 1 1 1 1 0 0 0 0 0 0 0 0 0 0 0 0 0 0 0 0 0 0 "/>
</feComponentTransfer>
<feComposite operator="in" in2="shape" in="coloredNoise2" result="noise2Clipped" />
<feFlood flood-color="rgba(0, 0, 0, 0.1)" result="color1Flood" />
<feComposite operator="in" in2="noise1Clipped" in="color1Flood" result="color1" />
<feFlood flood-color="rgba(255, 255, 255, 0.05)" result="color2Flood" />
<feComposite operator="in" in2="noise2Clipped" in="color2Flood" result="color2" />
<feMerge result="effect1_noise_262_495">
<feMergeNode in="shape" />
<feMergeNode in="color1" />
<feMergeNode in="color2" />
</feMerge>
</filter>
<linearGradient id="paint0_linear_262_495" x1="8.03179e-07" y1="7.49991" x2="2560" y2="7.50018" gradientUnits="userSpaceOnUse">
<stop stop-color="#0A1A3D"/>
<stop offset="0.504808" stop-color="#1A3365"/>
<stop offset="1" stop-color="#0A1A3D"/>
</linearGradient>
<linearGradient id="paint1_linear_262_495" x1="2560" y1="7.50007" x2="8.03191e-07" y2="7.4998" gradientUnits="userSpaceOnUse">
<stop stop-color="#9B0102"/>
<stop offset="0.495192" stop-color="#E44E20"/>
<stop offset="1" stop-color="#9B0102"/>
</linearGradient>
</defs>
</svg>
