<svg width="2560" height="42" viewBox="0 0 2560 42" fill="none" xmlns="http://www.w3.org/2000/svg">
<g filter="url(#filter0_n_128_389)">
<path d="M2560 39.0039H2550.9C2538.13 38.7974 2527.3 38.6128 2522.75 38.6348C2514.87 38.6731 2505.16 39.1191 2495.08 39.1982C2462.59 39.4532 2445.58 39.1268 2416.3 40.3369L2381.17 38.4238C2365.89 38.7195 2342.73 37.8785 2333.45 37.9248C2325.83 37.9629 2321.37 38.4677 2313.43 38.4912C2304.53 38.5203 2290.85 37.9756 2274.66 38.0576C2248.11 38.1895 2243.39 39.5058 2227.46 39.6729C2210.94 39.8457 2185.25 39.1308 2164.18 39.5938C2161.53 39.7385 2158.89 39.8826 2156.25 40.0273L2161.93 41.0088C2151.31 41.1611 2146.75 40.4907 2136.99 40.4785C2125.52 40.4639 2119.66 41.0996 2111.94 41.0967C2105.61 41.0937 2097.03 40.5843 2088.83 40.6162C2076.87 40.6602 2079.48 41.3964 2073.05 41.5342C2070.47 41.5877 2023 41.9932 2020.32 41.999C1999.95 42.028 1998.18 41.0207 1981.94 40.9326C1936.89 40.6923 1890.64 41.5067 1848.97 41.8145C1830.36 41.9521 1810.94 41.8936 1792.39 41.7324C1821.61 39.1534 1756.94 37.1451 1781.13 41.1807C1760.49 40.6065 1745.85 41.6969 1726.28 41.5127C1713.62 41.3925 1704.86 40.834 1686.79 40.8486C1654.72 40.8782 1619.64 42.4675 1610.41 39.5928C1572.77 40.0996 1540.16 39.0569 1526.59 41.5947C1516.88 41.7498 1492 40.2386 1481.12 40.0332C1470.82 39.8398 1391.81 39.1563 1378.89 39.1182C1365.96 39.0801 1343.33 39.0391 1332.45 39.2617C1318.77 39.5373 1309.21 42.1699 1284.87 39.0928C1256.56 39.3418 1246.47 39.253 1220.14 38.8955C1215.37 38.8308 1214.83 38.3735 1212.05 38.373C1206.31 38.3731 1196.55 38.7108 1186.31 38.752C1169.47 38.8194 1159.86 37.8578 1161.73 39.3262L1128.43 40.0654L1116.74 39.2148L1098.93 40.1416C1105.9 38.0169 1064.13 39.2701 1077.69 40.4893C1056.17 40.0497 1034.65 39.6114 1013.12 39.1719C1016.13 36.757 965.868 38.8921 970.1 40.2051L962.71 40.1992C941.15 39.5574 921.351 40.0831 895.072 39.6523C868.795 39.2215 871.26 38.9867 863.27 37.876L844.718 38.0664C812.271 41.1114 818.005 35.839 762.442 38.1748C745.583 36.3574 705.268 37.1722 676.402 37.7559L671.916 37.8467C668.54 37.9141 668.482 38.2859 663.985 38.4004C652.992 38.6758 624.941 38.1983 625.899 39.3965L596.768 38.3564L572.956 39.0098L573.077 40.1318C557.095 38.857 531.981 39.3468 519.592 39.042C517.128 38.9802 516.593 38.465 508.931 38.3242C499.974 38.1572 483.284 38.3096 472.611 38.1484L460.165 39.8633C441.079 40.1733 434.369 38.6641 423.162 38.5469C421.14 38.5265 384.332 38.6357 382.346 38.668C366.107 38.9233 370.706 40.2069 323.741 39.9316C315.378 39.8818 308.613 39.4388 301.055 39.4209C287.7 39.3887 247.46 40.3971 244.296 41.3291C228.099 40.1627 184.764 40.6388 171.999 40.3018C168.147 40.1981 167.277 39.455 155.437 39.2969C145.837 39.1679 121.113 39.7626 108.938 39.6631C96.0145 39.5547 91.3992 38.9309 85.6084 38.8867C80.1384 38.8457 75.0942 39.3506 67.6396 39.3477C45.332 39.3308 25.0436 38.5877 7.2002 38.5127H0C-0.00097628 36.2553 0.0266068 37.6118 0.0107422 34.8164L0.00683594 33H0V0H2560V39.0039Z" fill="url(#paint0_linear_128_389)"/>
<path d="M2560 39.0039H2550.9C2538.13 38.7974 2527.3 38.6128 2522.75 38.6348C2514.87 38.6731 2505.16 39.1191 2495.08 39.1982C2462.59 39.4532 2445.58 39.1268 2416.3 40.3369L2381.17 38.4238C2365.89 38.7195 2342.73 37.8785 2333.45 37.9248C2325.83 37.9629 2321.37 38.4677 2313.43 38.4912C2304.53 38.5203 2290.85 37.9756 2274.66 38.0576C2248.11 38.1895 2243.39 39.5058 2227.46 39.6729C2210.94 39.8457 2185.25 39.1308 2164.18 39.5938C2161.53 39.7385 2158.89 39.8826 2156.25 40.0273L2161.93 41.0088C2151.31 41.1611 2146.75 40.4907 2136.99 40.4785C2125.52 40.4639 2119.66 41.0996 2111.94 41.0967C2105.61 41.0937 2097.03 40.5843 2088.83 40.6162C2076.87 40.6602 2079.48 41.3964 2073.05 41.5342C2070.47 41.5877 2023 41.9932 2020.32 41.999C1999.95 42.028 1998.18 41.0207 1981.94 40.9326C1936.89 40.6923 1890.64 41.5067 1848.97 41.8145C1830.36 41.9521 1810.94 41.8936 1792.39 41.7324C1821.61 39.1534 1756.94 37.1451 1781.13 41.1807C1760.49 40.6065 1745.85 41.6969 1726.28 41.5127C1713.62 41.3925 1704.86 40.834 1686.79 40.8486C1654.72 40.8782 1619.64 42.4675 1610.41 39.5928C1572.77 40.0996 1540.16 39.0569 1526.59 41.5947C1516.88 41.7498 1492 40.2386 1481.12 40.0332C1470.82 39.8398 1391.81 39.1563 1378.89 39.1182C1365.96 39.0801 1343.33 39.0391 1332.45 39.2617C1318.77 39.5373 1309.21 42.1699 1284.87 39.0928C1256.56 39.3418 1246.47 39.253 1220.14 38.8955C1215.37 38.8308 1214.83 38.3735 1212.05 38.373C1206.31 38.3731 1196.55 38.7108 1186.31 38.752C1169.47 38.8194 1159.86 37.8578 1161.73 39.3262L1128.43 40.0654L1116.74 39.2148L1098.93 40.1416C1105.9 38.0169 1064.13 39.2701 1077.69 40.4893C1056.17 40.0497 1034.65 39.6114 1013.12 39.1719C1016.13 36.757 965.868 38.8921 970.1 40.2051L962.71 40.1992C941.15 39.5574 921.351 40.0831 895.072 39.6523C868.795 39.2215 871.26 38.9867 863.27 37.876L844.718 38.0664C812.271 41.1114 818.005 35.839 762.442 38.1748C745.583 36.3574 705.268 37.1722 676.402 37.7559L671.916 37.8467C668.54 37.9141 668.482 38.2859 663.985 38.4004C652.992 38.6758 624.941 38.1983 625.899 39.3965L596.768 38.3564L572.956 39.0098L573.077 40.1318C557.095 38.857 531.981 39.3468 519.592 39.042C517.128 38.9802 516.593 38.465 508.931 38.3242C499.974 38.1572 483.284 38.3096 472.611 38.1484L460.165 39.8633C441.079 40.1733 434.369 38.6641 423.162 38.5469C421.14 38.5265 384.332 38.6357 382.346 38.668C366.107 38.9233 370.706 40.2069 323.741 39.9316C315.378 39.8818 308.613 39.4388 301.055 39.4209C287.7 39.3887 247.46 40.3971 244.296 41.3291C228.099 40.1627 184.764 40.6388 171.999 40.3018C168.147 40.1981 167.277 39.455 155.437 39.2969C145.837 39.1679 121.113 39.7626 108.938 39.6631C96.0145 39.5547 91.3992 38.9309 85.6084 38.8867C80.1384 38.8457 75.0942 39.3506 67.6396 39.3477C45.332 39.3308 25.0436 38.5877 7.2002 38.5127H0C-0.00097628 36.2553 0.0266068 37.6118 0.0107422 34.8164L0.00683594 33H0V0H2560V39.0039Z" fill="#0A1A3D" fill-opacity="0.5" style="mix-blend-mode:hard-light"/>
</g>
<defs>
<filter id="filter0_n_128_389" x="0" y="0" width="2560" height="41.9996" filterUnits="userSpaceOnUse" color-interpolation-filters="sRGB">
<feFlood flood-opacity="0" result="BackgroundImageFix"/>
<feBlend mode="normal" in="SourceGraphic" in2="BackgroundImageFix" result="shape"/>
<feTurbulence type="fractalNoise" baseFrequency="6.6666665077209473 6.6666665077209473" stitchTiles="stitch" numOctaves="3" result="noise" seed="4089" />
<feColorMatrix in="noise" type="luminanceToAlpha" result="alphaNoise" />
<feComponentTransfer in="alphaNoise" result="coloredNoise1">
<feFuncA type="discrete" tableValues="0 0 0 0 0 0 0 0 0 0 0 0 0 0 0 0 0 0 1 1 1 1 1 1 1 1 1 1 1 1 1 0 0 0 0 0 0 0 0 0 0 0 0 0 0 0 0 0 0 0 0 0 0 0 0 0 0 0 0 0 0 0 0 0 0 0 0 0 0 0 0 0 0 0 0 0 0 0 0 0 0 0 0 0 0 0 0 0 0 0 0 0 0 0 0 0 0 0 0 0 "/>
</feComponentTransfer>
<feComposite operator="in" in2="shape" in="coloredNoise1" result="noise1Clipped" />
<feComponentTransfer in="alphaNoise" result="coloredNoise2">
<feFuncA type="discrete" tableValues="0 0 0 0 0 0 0 0 0 0 0 0 0 0 0 0 0 0 0 0 0 0 0 0 0 0 0 0 0 0 0 0 0 0 0 0 0 0 0 0 0 0 0 0 0 0 0 0 0 0 0 0 0 0 0 0 0 0 0 0 0 0 0 0 0 0 0 0 0 1 1 1 1 1 1 1 1 1 1 1 1 1 0 0 0 0 0 0 0 0 0 0 0 0 0 0 0 0 0 0 "/>
</feComponentTransfer>
<feComposite operator="in" in2="shape" in="coloredNoise2" result="noise2Clipped" />
<feFlood flood-color="rgba(0, 0, 0, 0.1)" result="color1Flood" />
<feComposite operator="in" in2="noise1Clipped" in="color1Flood" result="color1" />
<feFlood flood-color="rgba(255, 255, 255, 0.05)" result="color2Flood" />
<feComposite operator="in" in2="noise2Clipped" in="color2Flood" result="color2" />
<feMerge result="effect1_noise_128_389">
<feMergeNode in="shape" />
<feMergeNode in="color1" />
<feMergeNode in="color2" />
</feMerge>
</filter>
<linearGradient id="paint0_linear_128_389" x1="2560" y1="20.0002" x2="0" y2="20.0002" gradientUnits="userSpaceOnUse">
<stop stop-color="#0A1A3D"/>
<stop offset="0.504808" stop-color="#19346A"/>
<stop offset="1" stop-color="#0A1A3D"/>
</linearGradient>
</defs>
</svg>
