<?xml version="1.0" encoding="utf-8"?>
<!-- Generator: Adobe Illustrator 26.3.1, SVG Export Plug-In . SVG Version: 6.00 Build 0)  -->
<svg version="1.1" id="Calque_1" xmlns="http://www.w3.org/2000/svg" xmlns:xlink="http://www.w3.org/1999/xlink" x="0px" y="0px"
	 viewBox="0 0 33 33" style="enable-background:new 0 0 33 33;" xml:space="preserve">
<style type="text/css">
	.st0{fill:#FFFFFF;filter:url(#Adobe_OpacityMaskFilter);}
	.st1{mask:url(#path-1-inside-1_71_3099_00000135652827701319359000000008641774056694421406_);fill:#BB913C;}
</style>
<defs>
	<filter id="Adobe_OpacityMaskFilter" filterUnits="userSpaceOnUse" x="0.5" y="0.5" width="32" height="32">
		<feColorMatrix  type="matrix" values="1 0 0 0 0  0 1 0 0 0  0 0 1 0 0  0 0 0 1 0"/>
	</filter>
</defs>
<mask maskUnits="userSpaceOnUse" x="0.5" y="0.5" width="32" height="32" id="path-1-inside-1_71_3099_00000135652827701319359000000008641774056694421406_">
	<path class="st0" d="M16.5,0.5c0,10.5-5.5,16-16,16c10.5,0,16,5.5,16,16c0-10.5,5.5-16,16-16C22,16.5,16.5,11,16.5,0.5z"/>
</mask>
<path class="st1" d="M17.4,0.5c-0.6,0-1.2,0-1.9,0c-0.1,1.7-0.3,3.3-0.8,4.9c-1.5,6.6-7.8,9.4-14.3,9v4.2c8.4-0.2,14,5.6,13.5,13.9
	h5c0,0,0,0,0,0c-0.5-8.3,5.1-14.1,13.5-13.9v-4.2c-6.4,0.4-12.7-2.4-14.3-9C17.8,3.8,17.5,2.2,17.4,0.5c-0.6,0-1.2,0-1.9,0
	c-0.1,1.8-0.1,3.6,0.3,5.4c0.6,7.8,9.5,13,16.7,12.7v-4.2c-4.5-0.1-9.8,0.7-13.6,4.5C15,22.6,14,27.9,14,32.5c0,0,0,0,0,0h5
	c0-4.6-1-9.9-4.9-13.6c-3.8-3.7-9.1-4.6-13.6-4.5v4.2c7.2,0.4,16-4.9,16.7-12.7C17.5,4.1,17.5,2.3,17.4,0.5z M15.6,0.5h1.9H15.6h1.9
	H15.6z"/>
</svg>
