<svg width="964" height="3" viewBox="0 0 964 3" fill="none" xmlns="http://www.w3.org/2000/svg">
<path d="M916.732 1.22064C917.881 1.22392 919.502 1.25042 920.858 1.25831C926.536 1.29261 928.639 1.31363 933.776 1.34388C941.393 1.38361 963.999 1.50694 964 1.5C964 1.5 963.998 1.49999 963.993 1.49998C963.914 1.4994 961.991 1.49619 961.706 1.49767C961.421 1.49919 961.635 1.50637 958.904 1.5188C954.944 1.53764 945.446 1.55713 943.334 1.56149C941.89 1.56613 940.113 1.57951 938.267 1.58739C932.314 1.61362 929.199 1.61223 923.836 1.66921C921.691 1.65831 919.546 1.64435 917.401 1.6274C914.602 1.64604 910.36 1.62432 908.66 1.62913C907.265 1.63364 906.448 1.65719 904.994 1.66208C903.363 1.66789 900.859 1.64873 897.893 1.65893C893.03 1.67556 892.165 1.74757 889.247 1.76663C886.222 1.787 881.516 1.75901 877.656 1.799C877.172 1.80957 876.688 1.82027 876.203 1.83111C876.55 1.85073 876.897 1.87013 877.244 1.8893C875.3 1.90699 874.463 1.86722 872.677 1.87273C870.575 1.87921 869.502 1.92628 868.087 1.93193C866.929 1.93654 865.357 1.90684 863.855 1.91443C861.664 1.92551 862.143 1.9772 860.964 1.99222C860.494 1.99765 851.798 2.06619 851.308 2.06921C847.577 2.08821 847.252 2.00735 844.276 2.01067C836.025 2.01934 827.554 2.12161 819.921 2.18286C816.513 2.20964 812.957 2.21821 809.558 2.21424C814.911 1.93444 803.065 1.75403 807.495 2.16447C803.714 2.11645 801.033 2.2414 797.449 2.23465C795.13 2.22971 793.526 2.17255 790.215 2.18416C784.341 2.20317 777.916 2.41677 776.227 2.07509C769.331 2.1543 763.359 2.03453 760.874 2.36536C759.095 2.3916 754.539 2.209 752.544 2.18568C750.658 2.16609 736.187 2.10263 733.819 2.10029C731.452 2.09928 727.307 2.10034 725.313 2.13572C722.808 2.17793 721.058 2.56676 716.598 2.12614C711.412 2.17125 709.565 2.16225 704.742 2.11563C703.869 2.1072 703.77 2.0382 703.26 2.03879C702.209 2.0401 700.422 2.09385 698.546 2.10288C695.461 2.11785 693.701 1.97123 694.045 2.19805C692.011 2.23936 689.978 2.28115 687.944 2.3234C687.231 2.28022 686.517 2.23682 685.804 2.19322C684.716 2.2435 683.629 2.29411 682.542 2.34503C683.819 2.00607 676.166 2.2157 678.651 2.40754C674.709 2.34449 670.767 2.27954 666.825 2.21284C667.375 1.81681 658.169 2.17602 658.944 2.39483C658.493 2.39522 658.042 2.39561 657.591 2.396C653.642 2.29487 650.015 2.38804 645.202 2.32161C640.389 2.25443 640.841 2.21347 639.377 2.02448C638.244 2.03628 637.111 2.04813 635.979 2.06003C630.036 2.59289 631.086 1.67639 620.909 2.09102C617.658 1.75647 609.642 1.93588 604.328 2.04411C603.709 2.05659 603.699 2.12333 602.875 2.14452C600.862 2.19567 595.723 2.11284 595.899 2.32985C594.121 2.26857 592.342 2.20691 590.563 2.14488C589.11 2.18549 587.656 2.22626 586.202 2.26716C586.209 2.33558 586.217 2.40399 586.224 2.47241C583.297 2.2417 578.697 2.3344 576.427 2.27987C575.976 2.26877 575.879 2.17361 574.475 2.14834C572.834 2.11832 569.777 2.14816 567.822 2.11916C567.062 2.22572 566.303 2.33246 565.542 2.43938C562.047 2.4997 560.818 2.21887 558.765 2.19781C558.395 2.19419 551.652 2.21756 551.289 2.22377C548.315 2.27297 549.157 2.51478 540.555 2.46735C539.023 2.45871 537.784 2.37509 536.399 2.37225C533.953 2.36706 526.583 2.56152 526.003 2.7393C523.037 2.51874 515.099 2.61214 512.761 2.54841C512.055 2.5288 511.896 2.38685 509.727 2.35704C507.969 2.33273 503.441 2.44745 501.21 2.42872C498.843 2.40832 497.998 2.28875 496.937 2.2804C495.935 2.27263 495.012 2.36934 493.646 2.3689C489.383 2.36592 485.523 2.21041 482.154 2.20754C482.103 2.2075 482.051 2.20748 482 2.2075C477.191 2.20908 472.935 2.49046 468.901 2.6156C467.889 2.59692 466.895 2.5354 465.834 2.53469C452.71 2.52389 437.906 2.46634 424.743 2.39993C418.632 2.36877 403.437 1.98229 407.493 2.61709C405.369 2.72612 389.928 2.45968 386.991 2.45407C384.055 2.44803 381.727 2.55729 379.42 2.55659C372.455 2.55422 367.55 2.47074 359.073 2.55579C356.883 2.57804 354.537 2.70309 353.24 2.69965C351.679 2.69524 349.998 2.56955 347.974 2.55916C343.151 2.5354 334.163 2.56254 329.536 2.53454C328.691 2.5292 328.394 2.42361 327.186 2.38925C322.481 2.25519 317.206 2.26081 318.14 2.59185C312.109 2.39476 306.53 2.55595 300.941 2.5545C289.123 2.55161 267.596 2.4373 257.301 2.53445C250.81 2.59544 250.976 2.72212 241.419 2.58398C239.297 2.55356 237.185 2.51516 234.612 2.47972C228.58 2.39438 223.047 2.16434 218.45 2.41383C211.751 2.32759 206.416 2.35605 201.446 2.13249C200.86 2.1817 200.274 2.23058 199.688 2.27914C198.867 2.27801 198.045 2.27687 197.224 2.2757C196.968 2.22747 196.712 2.17938 196.455 2.13143C190.572 2.10665 183.108 2.27327 178.127 2.25367C169.777 2.22353 148.271 2.0852 140.353 2.01379C136.15 1.97589 135.924 2.04933 133.517 1.88917C132.577 1.89753 131.637 1.9057 130.697 1.91366C130.108 1.94505 129.52 1.97606 128.931 2.00669C123.539 1.98933 117.142 1.9208 112.004 1.90585C102.643 1.88121 88.585 1.89514 79.1839 1.81868C76.8267 1.7999 73.8801 1.74857 71.5717 1.7423C68.2121 1.73296 67.3955 1.7932 63.1322 1.77631C55.7842 1.74391 42.0999 1.63953 35.1547 1.62338C33.0919 1.61744 32.1294 1.62565 30.7051 1.62127C24.7324 1.60265 19.8288 1.58435 14.1017 1.56661C7.95231 1.52605 8.48355 1.52131 6.5778 1.50886C5.13352 1.49802 0.704877 1.49573 0.0762056 1.4998C-0.365397 1.50143 1.2834 1.49514 0.664586 1.49698C8.03211 1.46208 11.1273 1.44512 17.1098 1.43948C28.1579 1.4005 39.2059 1.36175 50.254 1.32335C51.2591 1.33658 52.2643 1.35076 53.2694 1.36587C53.2694 1.36591 53.2694 1.36595 53.2694 1.36599C57.5123 1.37735 59.3105 1.3254 61.5987 1.30623C83.5051 1.10999 126.622 1.05303 150.738 1.04677C155.935 1.04147 172.841 0.933787 176.406 1.00692C177.33 1.02608 177.586 1.10329 178.569 1.10505C187.344 1.04367 196.12 0.977645 204.895 0.907679C222.941 1.00812 241.597 0.865244 259.78 0.806485C308.975 0.658803 357.679 0.493171 406.069 0.490255C415.421 0.490151 427.289 0.387922 436.445 0.445862C440.266 0.46985 441.858 0.675556 446.877 0.520326C446.93 0.575922 446.983 0.63152 447.035 0.687121C451.416 0.618944 454.215 0.491429 459.127 0.477487C463.262 0.465849 474.205 0.456258 477.859 0.477635C479.755 0.488258 479.049 0.592743 480.816 0.592189C481.167 0.59199 481.565 0.589867 482 0.586271C485.312 0.55887 490.791 0.446314 494.481 0.446772C498.263 0.447193 504.639 0.568427 507.547 0.551642C518.018 0.491864 529.425 0.319498 540.584 0.373419C543.667 0.388604 547.632 0.524004 548.597 0.520787C550.483 0.514122 551.045 0.385585 552.311 0.369927C558.745 0.291003 568.775 0.451557 575.082 0.462631C595.632 0.499181 617.403 0.471034 637.865 0.523483C650.793 0.554835 672.276 0.573101 684.211 0.676371C686.785 0.698489 686.099 0.815532 688.26 0.818702C690.656 0.822114 691.954 0.745199 693.074 0.740819C700.825 0.707858 717.937 0.669112 725.255 0.759673C726.649 0.776911 727.66 0.862528 728.494 0.863679C728.917 0.864413 729.871 0.809412 731.197 0.806397C742.907 0.779801 751.444 0.832955 762.918 0.876003C784.893 0.954349 810.354 0.941013 833.439 1.05002C838.469 1.07359 841.918 1.18178 842.625 1.18186C844.177 1.18324 845.171 1.12007 848.314 1.11366C858.766 1.0956 872.841 1.20047 882.782 1.20633C887.694 1.20968 894.442 1.18194 899.275 1.19393C903.135 1.20316 912.252 1.25993 913.963 1.25112C915.004 1.24597 915.485 1.21733 916.732 1.22064ZM786.689 2.11962C787.376 1.96171 780.149 2.10951 782.861 2.18826C783.471 2.20558 786.511 2.16041 786.689 2.11962ZM448.271 2.07799C448.337 2.15186 448.403 2.22573 448.47 2.2996C449.418 2.26909 450.367 2.23854 451.316 2.20796C450.783 2.16342 450.249 2.1189 449.716 2.0744C449.234 2.0756 448.753 2.0768 448.271 2.07799Z" fill="#0A1A3D"/>
</svg>
