<svg width="16" height="17" viewBox="0 0 16 17" fill="none" xmlns="http://www.w3.org/2000/svg">
<path fill-rule="evenodd" clip-rule="evenodd" d="M6.35663 5.24081C7.03554 4.88854 7.80824 4.75931 8.56483 4.8715C9.33657 4.98594 10.0511 5.34556 10.6027 5.89723C11.1544 6.44891 11.514 7.16339 11.6285 7.93514C11.7407 8.69172 11.6114 9.46443 11.2592 10.1433C10.9069 10.8222 10.3495 11.3728 9.6663 11.7167C8.9831 12.0605 8.20887 12.1802 7.45372 12.0587C6.69858 11.9372 6.00097 11.5807 5.46013 11.0398C4.9193 10.499 4.56276 9.80139 4.44125 9.04624C4.31974 8.29109 4.43943 7.51686 4.7833 6.83366C5.12718 6.15046 5.67772 5.59308 6.35663 5.24081ZM8.35147 6.31031C7.89752 6.243 7.4339 6.32054 7.02655 6.5319C6.61921 6.74326 6.28888 7.07769 6.08255 7.48761C5.87623 7.89753 5.80441 8.36207 5.87732 8.81516C5.95023 9.26824 6.16415 9.68681 6.48865 10.0113C6.81316 10.3358 7.23172 10.5497 7.68481 10.6226C8.13789 10.6955 8.60243 10.6237 9.01235 10.4174C9.42227 10.2111 9.7567 9.88076 9.96806 9.47341C10.1794 9.06607 10.257 8.60245 10.1896 8.14849C10.121 7.68545 9.90522 7.25676 9.57421 6.92575C9.2432 6.59475 8.81452 6.37898 8.35147 6.31031Z" fill="white"/>
<path d="M12 3.77273C11.5983 3.77273 11.2727 4.09834 11.2727 4.5C11.2727 4.90166 11.5983 5.22727 12 5.22727H12.0073C12.4089 5.22727 12.7345 4.90166 12.7345 4.5C12.7345 4.09834 12.4089 3.77273 12.0073 3.77273H12Z" fill="white"/>
<path fill-rule="evenodd" clip-rule="evenodd" d="M0 4.86364C0 2.45367 1.95367 0.5 4.36364 0.5H11.6364C14.0463 0.5 16 2.45367 16 4.86364V12.1364C16 14.5463 14.0463 16.5 11.6364 16.5H4.36364C1.95367 16.5 0 14.5463 0 12.1364V4.86364ZM4.36364 1.95455C2.75699 1.95455 1.45455 3.25699 1.45455 4.86364V12.1364C1.45455 13.743 2.75699 15.0455 4.36364 15.0455H11.6364C13.243 15.0455 14.5455 13.743 14.5455 12.1364V4.86364C14.5455 3.25699 13.243 1.95455 11.6364 1.95455H4.36364Z" fill="white"/>
</svg>
