<svg width="77" height="81" viewBox="0 0 77 81" fill="none" xmlns="http://www.w3.org/2000/svg">
<path d="M20.6621 43.6167C20.2248 43.5677 19.7849 43.5449 19.3448 43.5485C16.3576 43.7403 13.3658 43.8898 10.3873 44.1758C7.2023 44.4815 4.03042 44.9222 0.853005 45.3046C0.774087 45.3141 0.685698 45.3643 0.622406 45.3405C0.430792 45.2685 0.249596 45.1687 0.0644531 45.0808C0.22371 44.9545 0.367657 44.7484 0.54475 44.7143C2.60515 44.3178 4.67802 43.9827 6.73321 43.5621C10.6916 42.7518 14.6423 41.9036 18.5921 41.0525C19.113 40.9403 19.6091 40.7166 20.1167 40.5447L20.0665 40.2685C19.5312 40.3195 18.9891 40.3317 18.4621 40.4281C16.08 40.8614 13.7462 40.6988 11.4953 39.8088C9.51177 39.0245 7.49762 39.1143 5.44148 39.3543C4.32412 39.4593 3.20131 39.4947 2.07955 39.4603C1.74084 39.4576 1.40386 39.2551 1.04667 39.1383C1.12054 39.012 1.15116 38.9276 1.17136 38.9301C3.18583 39.1694 5.12359 38.6583 7.07903 38.3278C8.61776 38.0799 10.1943 38.2297 11.6588 38.7629C14.3438 39.6956 17.0698 39.6678 19.8234 39.194C19.9777 39.1531 20.1294 39.1026 20.2775 39.0429C19.4321 38.7678 18.6687 38.5985 17.9761 38.2763C16.7895 37.7239 15.6391 37.0925 14.4879 36.4659C13.3157 35.8021 11.9831 35.4744 10.6367 35.5189C7.88384 35.6283 5.41228 34.8547 3.16863 33.2574C2.44747 32.7441 1.61409 32.3909 0.857425 31.9235C0.625247 31.7801 0.477038 31.5005 0.290475 31.2832C0.543014 31.1421 0.806444 30.8632 1.04636 30.8821C2.56048 31.0012 4.09671 31.061 5.57311 31.3822C7.29037 31.7616 9.06544 31.8 10.7975 31.4952C13.2755 31.0719 15.702 31.4141 18.0754 32.2695C19.1644 32.6622 20.3198 32.8736 21.445 33.167L21.57 32.8613C21.2884 32.6624 21.0176 32.4455 20.7239 32.2673C18.3031 30.8002 15.7678 29.6472 12.919 29.2747C10.6229 28.9748 8.69702 27.7619 6.73511 26.6411C5.9314 26.1818 5.06204 25.8361 4.22329 25.4393L4.26291 25.2229C4.69428 25.2919 5.16116 25.2778 5.55038 25.445C6.77898 25.9723 7.93877 26.6854 9.19815 27.1091C11.1111 27.7444 13.0548 28.2828 15.022 28.7221C16.4859 29.0303 17.8921 29.5672 19.1889 30.3131C20.155 30.8844 21.1795 31.3569 22.1553 31.8617C22.6984 31.4254 22.3762 31.183 22.0677 30.9588C19.9647 29.4335 17.8886 27.8686 15.7452 26.4024C12.5391 24.2094 9.2818 22.0917 6.05799 19.9246C5.84443 19.7812 5.73016 19.4903 5.56964 19.2679L5.78919 19.0591C6.79572 19.6476 7.78756 20.263 8.81129 20.8202C13.4664 23.3532 18.127 25.8767 22.7929 28.3907C23.0152 28.5314 23.2599 28.6332 23.5165 28.6917C23.7614 28.7274 24.0245 28.6396 24.2796 28.606C24.1428 28.3938 24.0534 28.1107 23.8609 27.9819C22.9025 27.3409 21.8162 26.8537 20.966 26.0976C19.8571 25.135 18.8656 24.0449 18.0121 22.85C16.5399 20.7272 14.6839 19.0908 12.492 17.7798C11.1436 16.9728 10.3437 16.0636 10.0514 15.0506C10.1485 15.0845 10.2425 15.1268 10.3324 15.1769C11.5838 16.075 12.785 17.0552 14.0947 17.8576C15.9058 18.9378 17.4747 20.3798 18.7035 22.0935C20.2523 24.304 22.3338 26.0878 24.7553 27.2798C24.7495 27.2082 24.7702 27.1193 24.7351 27.0811C23.6509 25.8973 22.9375 24.4962 22.4277 22.995C21.7471 20.9905 20.3747 19.5427 18.7608 18.2775C17.0829 16.9868 15.859 15.1958 15.2663 13.1636C14.9445 12.0917 14.4298 11.0788 14.0592 10.0194C13.9394 9.67694 13.8333 9.11978 14.0107 8.92485C14.439 8.45402 14.8247 8.95405 15.1156 9.24763C16.2026 10.3441 17.2306 11.5003 18.3322 12.5808C19.3205 13.5495 20.2593 14.6483 21.428 15.3376C23.868 16.7775 25.6136 18.7857 27.0762 21.1449C27.6226 22.0264 28.3764 22.782 29.0632 23.5708C29.1675 23.6906 29.4222 23.6794 29.6072 23.7287C29.6219 23.5356 29.7134 23.3042 29.6388 23.1554C28.7061 21.2805 27.8156 19.3792 26.7737 17.5655C26.1639 16.504 25.2291 15.6335 24.5729 14.5936C23.7379 13.2706 23.0014 11.881 22.2883 10.4866C21.6385 9.21606 21.0768 7.90065 20.4445 6.53694C20.6191 6.6127 20.9459 6.65232 21.0874 6.83541C21.5315 7.40993 22.0514 7.9884 22.2815 8.65511C23.1912 11.2896 24.7569 13.5042 26.4929 15.6275C27.786 17.1868 28.8216 18.9426 29.5605 20.8287C29.8399 21.5523 30.2659 22.2191 30.6251 22.9122L30.8633 22.8659C30.8484 22.5946 30.8884 22.3064 30.8106 22.0545C29.3567 17.343 27.8918 12.6349 26.4159 7.93032C26.0213 6.68088 25.5223 5.4646 25.1049 4.22116C25.035 4.01297 25.1374 3.74686 25.1603 3.50742L25.4236 3.50995C26.7073 6.6299 27.9245 9.77906 29.2947 12.8596C30.6603 15.9307 31.8139 19.1151 33.6232 21.9702L33.9624 21.8705C33.9122 21.5267 33.8389 21.1866 33.7429 20.8527C33.0244 18.8381 32.3768 16.7921 32.5146 14.6319C32.6764 12.0947 32.2231 9.6812 31.5163 7.26551C31.1603 6.04875 31.0688 4.75007 31.7057 3.49732C31.7319 3.91117 31.6998 4.3389 31.795 4.73618C32.1179 6.08442 32.4175 7.44481 32.8544 8.7577C33.3568 10.268 33.6941 11.7792 33.6494 13.3806C33.5874 15.5999 33.7798 17.7915 34.5807 19.8915C34.7058 20.2196 34.8332 20.547 34.9819 20.9342C35.5193 18.9424 36.1666 17.073 36.493 15.1491C36.7119 13.8587 36.5729 12.4798 36.4231 11.16C36.1181 8.4698 36.3503 5.8756 37.3193 3.3338C37.6034 2.59007 37.65 1.75812 37.8351 0.97351C37.8758 0.800679 38.0422 0.657837 38.1508 0.5C38.3743 0.678987 38.7505 0.826091 38.7957 1.04233C39.0201 2.11925 39.1851 3.211 39.314 4.30434C39.3716 4.85391 39.3704 5.40805 39.3104 5.95736C39.1393 7.70809 39.4973 9.35385 40.2293 10.9313C41.2587 13.1493 41.3815 15.4839 41.164 17.871C41.0441 19.0313 41.0154 20.1991 41.0782 21.3638C41.2603 20.9787 41.457 20.5996 41.6224 20.2076C42.5549 18.006 42.7948 15.6915 42.6603 13.3337C42.5363 11.5982 42.8493 9.8593 43.5707 8.27598C44.3323 6.62422 44.9213 4.91406 45.0017 3.06832C45.0042 3.00787 45.062 2.94978 45.094 2.89044L45.3274 2.88333C45.3571 3.42108 45.4869 3.97651 45.395 4.49327C45.2362 5.50401 44.9847 6.498 44.6437 7.46265C43.8719 9.50746 43.553 11.6954 43.7088 13.8754C43.8815 16.3783 43.4078 18.8836 42.3331 21.1507C42.2636 21.3275 42.2057 21.5085 42.1595 21.6927C42.7378 22.0618 43.0961 21.9251 43.3692 21.3065C45.1166 17.3481 46.8932 13.4025 48.6352 9.44176C49.4266 7.64243 50.1535 5.81452 50.9347 4.0106C51.0036 3.85166 51.2588 3.77385 51.4274 3.65784C51.4431 3.86697 51.5366 4.10973 51.463 4.28035C49.1304 9.6992 47.645 15.3957 45.9591 21.0268C45.8013 21.5542 45.6706 22.0898 45.5337 22.6233C45.5236 22.6628 45.567 22.7158 45.6572 22.9439C45.9141 22.6838 46.1755 22.5054 46.3201 22.2586C46.9017 21.2617 47.3981 20.2124 48.0173 19.2407C48.9452 17.7847 49.8621 16.3069 50.9444 14.9683C52.2702 13.328 53.1887 11.4959 53.9985 9.57971C54.4443 8.52458 54.8845 7.44166 56.179 6.73234C56.0054 7.05433 55.9205 7.18786 55.8567 7.33054C55.1528 8.90607 54.3888 10.4585 53.7684 12.0664C53.1886 13.589 52.342 14.9961 51.2683 16.2215C49.4585 18.2877 48.5472 20.8758 47.2456 23.2372C47.2145 23.3322 47.1994 23.4318 47.201 23.5318C47.2892 23.5382 47.3525 23.5634 47.3796 23.5416C48.8002 22.4295 50.1836 21.264 51.6472 20.2113C53.3583 18.9802 54.3579 17.2439 55.291 15.441C56.337 13.4207 57.9383 11.9466 59.8244 10.7302C60.4771 10.3092 61.0518 9.76896 61.6831 9.31218C61.8705 9.17676 62.1292 9.13982 62.355 9.05775C62.4309 9.30666 62.6379 9.61018 62.5602 9.79516C62.2054 10.6382 61.8851 11.5339 61.3435 12.2528C59.7619 14.3521 58.5223 16.5919 57.8092 19.1388C57.213 21.2675 55.9309 22.9796 54.3039 24.4653C53.5522 25.152 52.9017 25.9515 52.2238 26.7162C52.0412 26.9386 51.9175 27.2035 51.8643 27.4863C53.5288 26.4018 55.2986 25.4766 56.6065 23.9482C57.4588 22.9524 58.169 21.8277 59.0725 20.8862C60.0196 19.9107 61.0462 19.0156 62.1416 18.2102C63.5835 17.1388 65.1124 16.1845 66.532 15.2284C66.5439 15.181 66.554 15.3704 66.4637 15.4707C65.8353 16.1632 65.2864 16.9903 64.525 17.4878C62.2553 18.9715 60.249 20.6849 58.7033 22.9381C57.4542 24.7586 55.8018 26.1737 53.9524 27.3733C53.5279 27.6775 53.1353 28.0242 52.781 28.4079C52.7418 28.4678 52.7187 28.5367 52.7139 28.6081C52.7091 28.6795 52.7226 28.751 52.7533 28.8156C52.8079 28.8624 52.8729 28.8956 52.9429 28.9124C53.0128 28.9291 53.0858 28.929 53.1557 28.912C53.4049 28.8309 53.6442 28.722 53.8691 28.5875C59.1589 25.6254 64.4483 22.6623 69.737 19.698C70.0669 19.5133 70.42 19.3703 70.763 19.2079L70.975 19.4494C70.796 19.656 70.6528 19.9179 70.4326 20.0609C67.5916 21.9057 64.6885 23.6575 61.9095 25.5888C59.5853 27.2038 57.3928 29.0104 55.1698 30.7669C54.8352 31.0313 54.269 31.3193 54.6532 32.0474C54.9602 31.8771 55.259 31.7364 55.5316 31.5561C58.0848 29.8673 60.8062 28.6718 63.905 28.3771C65.8723 28.1901 67.6066 27.2667 69.2956 26.2851C70.2349 25.7392 71.2139 25.3034 72.3455 25.4284C72.4493 25.4359 72.5523 25.4518 72.6535 25.4758C72.6889 25.4857 72.7093 25.549 72.7913 25.6652C70.6302 25.8972 69.18 27.4995 67.3431 28.314C65.9215 28.9147 64.4396 29.3615 62.9228 29.6468C60.488 30.1449 58.2893 31.1462 56.1874 32.4152C56.005 32.5307 55.8491 32.6833 55.7297 32.8631C57.5025 32.2782 59.2114 32.9421 60.9421 32.9967C62.0469 33.0317 63.2536 32.9858 64.2544 32.5805C67.0481 31.4491 69.9003 31.0474 72.8853 31.2289C73.7871 31.2838 74.7034 31.0635 75.6158 31.0125C75.8376 31.0002 76.2229 31.1164 76.2608 31.2504C76.3228 31.4695 76.245 31.874 76.0796 31.9862C75.3723 32.4801 74.6274 32.9176 73.8517 33.2948C73.2167 33.5947 72.5008 33.7161 71.8437 33.9748C70.2134 34.6166 68.4976 35.1221 66.9965 35.9926C64.7191 37.3129 62.3164 37.8934 59.7351 38.0497C58.7635 38.1085 57.807 38.4187 56.8435 38.6144L56.8625 38.8871C57.4847 38.958 58.1094 39.0106 58.7284 39.1032C61.2244 39.477 63.6903 39.4662 66.1351 38.7168C67.6418 38.2549 69.1859 38.3223 70.7439 38.5265C72.4128 38.7457 74.0973 39.154 75.7901 38.5069C75.3818 39.2748 74.663 39.4091 73.9508 39.4421C73.164 39.4811 72.3752 39.4534 71.593 39.3592C69.5814 39.105 67.5392 39.2588 65.5883 39.8114C63.5353 40.3988 61.3762 40.5153 59.2718 40.1525C58.5845 40.0348 57.8589 40.1088 57.1537 40.1486C56.9658 40.1592 56.7891 40.367 56.6072 40.4843C56.7745 40.62 56.9229 40.8355 57.1123 40.8789C58.6978 41.2448 60.2848 41.6122 61.8825 41.916C65.2581 42.5579 68.638 43.1763 72.0224 43.7712C73.4169 44.0148 74.8295 44.1529 76.2323 44.3503C76.4686 44.3983 76.7016 44.4616 76.9297 44.5398L76.9358 44.849C76.57 44.8963 76.1968 45.0137 75.8393 44.9779C73.6711 44.7604 71.5119 44.4203 69.3396 44.286C65.1225 44.0249 60.8988 43.8689 56.677 43.6911C56.5192 43.6844 56.3533 43.904 56.191 44.0183C56.3602 44.1287 56.5163 44.3009 56.7007 44.3404C58.4656 44.7175 60.2569 44.9931 61.9948 45.4658C62.927 45.7407 63.8045 46.1753 64.5881 46.7503C66.5789 48.1695 68.8058 48.8102 71.1887 49.1004C72.7852 49.2951 73.4557 49.6721 74.2897 50.6405C74.2165 50.6663 74.1371 50.7236 74.1003 50.7036C72.3095 49.7338 70.2986 49.7976 68.376 49.4278C67.1454 49.1967 65.9603 48.7677 64.867 48.1574C62.3688 46.7297 59.779 45.6763 56.8896 45.4532C56.7692 45.4438 56.6464 45.4633 56.3184 45.4797C58.0188 46.2767 59.1522 47.4701 60.2583 48.6864C61.5021 50.0626 63.1546 51.0034 64.9729 51.3706C67.062 51.8148 68.7263 52.8985 70.2044 54.3937C71.1563 55.3565 72.2321 56.1962 73.2331 57.1121C73.4015 57.2663 73.4715 57.5283 73.5868 57.7404C73.3378 57.8378 73.0571 58.063 72.845 58.0106C71.8581 57.7663 70.8233 57.5774 69.9288 57.1249C67.9374 56.1174 65.9152 55.3729 63.6523 55.2537C61.4355 55.1366 59.5525 54.1138 57.765 52.8336C56.7135 52.0807 55.5142 51.5299 54.3609 50.9272C54.1115 50.797 53.7745 50.8348 53.4491 50.7913C53.4715 50.94 53.4606 51.0098 53.4889 51.0347C54.5091 51.9311 55.4833 52.8901 56.5695 53.6982C57.8143 54.6575 59.1323 55.5177 60.5115 56.271C62.3852 57.2245 64.0962 58.4686 65.581 59.9569C66.5025 60.8953 67.5456 61.7141 68.5574 62.6072C67.8976 62.7513 67.3531 62.4031 66.8393 62.0247C66.3755 61.6804 65.9323 61.309 65.5121 60.9126C63.5923 59.115 61.3583 57.8085 59.0083 56.6698C57.2009 55.794 55.8318 54.3668 54.4512 52.9572C53.972 52.4679 53.4636 52.0007 52.7466 51.9649L52.5562 52.1792C53.7881 53.6968 54.9812 55.2482 56.2598 56.7249C59.4235 60.3795 62.6293 63.9975 65.8039 67.6429C65.9374 67.7962 65.9262 68.0754 65.9826 68.2961C65.7616 68.2282 65.4704 68.2279 65.3298 68.0822C63.8355 66.5327 62.4414 64.8797 60.8725 63.411C57.6526 60.3963 54.3447 57.4764 51.0708 54.5199C50.9603 54.4336 50.8443 54.3545 50.7236 54.2832L50.129 54.8496C50.645 55.3745 51.1166 55.8888 51.6247 56.3649C53.5283 58.1457 55.0696 60.1687 56.0209 62.6258C56.6459 64.2405 57.7359 65.5458 58.8741 66.84C59.693 67.7713 60.2946 68.8944 60.9713 69.9461C61.0263 70.0553 61.059 70.1743 61.0674 70.2963C61.0758 70.4183 61.0598 70.5407 61.0202 70.6564C60.9176 70.5583 60.7768 70.4791 60.7179 70.3596C59.972 68.8453 58.7489 67.7279 57.6275 66.5122C56.8366 65.655 56.0482 64.7141 55.5665 63.6688C54.3332 60.9467 52.5166 58.5289 50.2453 56.5868C50.7922 58.5634 51.3256 60.6571 51.9667 62.7173C52.1961 63.4431 52.5681 64.1159 53.0608 64.6961C54.934 66.8729 56.1481 69.2788 56.2935 72.2147C56.337 73.0932 56.8552 73.9427 57.1065 74.819C57.1807 75.0782 57.0856 75.3858 57.068 75.6713C56.814 75.6038 56.5209 75.5957 56.3126 75.4587C55.1753 74.7104 54.4357 73.6156 53.9318 72.391C53.295 70.8442 52.2824 69.5993 51.1025 68.4594C49.3032 66.7216 47.874 64.7457 47.0037 62.3715C46.4639 60.8992 45.6864 59.5442 44.4726 58.4232C44.7382 59.3437 44.9275 60.295 45.285 61.1783C46.0713 63.1206 46.8854 65.0563 47.7955 66.9428C48.6636 68.7685 49.3256 70.6853 49.7694 72.6576C50.0813 73.9992 50.5245 75.3102 50.8901 76.5684C50.4257 76.4234 50.028 75.9336 49.7009 74.9565C49.0271 72.9437 48.4529 70.8915 47.6669 68.9239C46.8016 66.7578 45.714 64.6816 44.7843 62.5398C44.3474 61.5334 44.0583 60.4633 43.6923 59.4256C43.5932 59.1173 43.4197 58.8381 43.1872 58.6126C42.9422 59.5376 43.4309 60.3763 43.5166 61.2545C43.6113 62.2198 43.7797 63.1777 43.8954 64.1412C44.0111 65.1046 44.0875 66.0751 44.209 67.0389C44.334 68.0285 44.4805 69.0161 44.6402 70.0009C44.7957 70.9599 44.9767 71.9146 45.1522 72.8703C45.3278 73.826 45.5172 74.7773 45.6868 75.7332C45.8515 76.6608 45.9987 77.5914 46.1537 78.5207L45.8028 78.6255C45.6887 78.3825 45.5238 78.1504 45.4682 77.8946C44.3318 72.6648 42.9428 67.4827 42.487 62.1232C42.4188 61.3118 42.3006 60.5053 42.1331 59.7083C42.0604 59.3643 41.8017 59.0593 41.6281 58.7367L41.3597 58.8421C41.3318 59.0639 41.3215 59.2875 41.329 59.5109C41.5272 61.3528 41.49 63.1807 41.0531 64.9905C40.6481 66.6677 41.1737 68.2762 41.4477 69.8976C41.8423 72.2369 41.5676 74.4861 40.7827 76.7162C40.449 77.6643 40.3496 78.6932 40.1073 79.6766C40.0358 79.9668 39.8398 80.2263 39.7009 80.5C39.4591 80.3008 39.0416 80.1299 39.0045 79.898C38.7813 78.5059 38.4737 77.0937 38.5223 75.6996C38.6099 73.8077 38.2812 71.9197 37.5595 70.1688C36.5574 67.7661 36.3259 65.2501 36.323 62.6851C36.3151 61.8195 36.2602 60.9549 36.1586 60.0952C36.1218 59.7623 35.9278 59.4468 35.8053 59.1234L35.5856 59.1581C35.4052 61.3891 35.1462 63.6175 35.0663 65.8521C34.9854 68.1149 34.9219 70.3694 34.3474 72.572C33.7995 74.6722 33.5877 76.8521 33.1581 78.9802L32.6281 78.8763C33.1016 75.5987 33.6832 72.3321 34.0208 69.0404C34.3573 65.7587 34.45 62.4517 34.4833 59.1187C34.2623 59.8737 34.0817 60.6443 33.8103 61.3811C33.0954 63.3207 32.4753 65.3112 31.5676 67.1595C30.4979 69.3376 29.8879 71.6162 29.3952 73.9594C29.2324 74.6472 28.9892 75.3135 28.6708 75.9445C28.5218 76.2573 28.1791 76.478 27.8148 76.6706C28.8504 75.188 28.8065 73.4646 29.0281 71.8262C29.322 69.6549 30.2024 67.728 31.0877 65.7521C32.0347 63.637 32.6164 61.3576 33.3461 59.1461C33.3733 59.0414 33.3757 58.9317 33.3532 58.8259C33.3307 58.72 33.2839 58.6209 33.2165 58.5362C33.1183 58.6628 33.0309 58.7974 32.9553 58.9386C32.3021 60.4241 31.1329 61.4999 30.0037 62.5917C28.7134 63.8016 27.798 65.3568 27.3664 67.0722C26.7464 69.593 25.3157 71.8404 23.2942 73.469C22.6787 73.9769 22.247 74.7011 21.6946 75.2922C21.5051 75.4947 21.2053 75.5935 20.956 75.7398C20.8574 75.4671 20.6186 75.1533 20.6844 74.9288C20.9854 73.9029 21.2657 72.8478 21.7501 71.9041C22.6676 70.1161 23.5417 68.3412 23.6295 66.2808C23.7447 63.5752 24.9245 61.3017 26.46 59.1393C27.118 58.2127 27.5419 57.119 28.0541 56.0917C28.128 55.9435 28.1007 55.7444 28.1302 55.4804C27.99 55.5287 27.8571 55.5963 27.7356 55.6813C25.6632 57.8776 23.549 60.0341 22.509 62.9838C21.8683 64.8009 20.6063 66.2215 19.3606 67.6592C18.6332 68.4989 18.1093 69.5147 17.4843 70.4447C17.3119 70.7198 17.0755 70.9492 16.7951 71.113C16.9988 69.8819 17.3433 68.7262 18.1899 67.8437C20.0393 65.9162 21.3309 63.6535 22.3639 61.2179C23.1983 59.2512 24.4881 57.6094 26.0111 56.1321C26.3351 55.825 26.6164 55.4758 26.8476 55.094C26.9638 54.8954 26.8969 54.5898 26.9126 54.3326L26.6517 54.2428C25.1996 55.4791 23.6651 56.6311 22.313 57.9677C18.9155 61.3265 15.6036 64.7719 12.243 68.1685C12.0814 68.3321 11.7837 68.3608 11.5485 68.4526C11.623 68.2118 11.6317 67.916 11.7816 67.7383C15.5514 63.2904 19.3286 58.8489 23.1132 54.4135C23.7062 53.7148 24.2338 52.9614 24.7927 52.2329L24.6721 51.9854C24.4442 52.072 24.1671 52.1033 23.9964 52.2537C22.8957 53.2268 21.8789 54.3056 20.7142 55.192C19.7258 55.9704 18.6357 56.6102 17.4742 57.0936C15.2952 57.9499 13.4951 59.2815 11.8236 60.8743C11.132 61.5331 10.2855 62.0385 9.47184 62.5552C9.20351 62.7252 8.81981 62.7113 8.44511 62.6706C10.5076 61.6573 11.7295 59.729 13.4345 58.3699C14.4863 57.5463 15.6244 56.8395 16.8288 56.2617C19.2498 55.0791 21.2916 53.4154 23.2044 51.5632C23.3842 51.3895 23.4885 51.137 23.673 50.8529C23.4123 50.8106 23.3441 50.7768 23.3135 50.7978C21.6925 51.9121 19.8264 52.1833 17.9349 52.3685C16.4003 52.4913 14.9464 53.1063 13.7895 54.122C11.7085 55.9918 9.19641 56.6671 6.55391 57.122C5.87206 57.2394 5.2265 57.5564 4.5527 57.7392C4.3131 57.8042 4.0391 57.7428 3.78072 57.7392C3.83091 57.4753 3.78735 57.1002 3.9466 56.9658C4.90546 56.1578 5.85169 55.3085 6.91472 54.6577C8.3523 53.7771 9.76383 52.909 10.9476 51.6746C12.939 49.5987 15.3374 48.1166 17.9977 47.0228C18.9121 46.6469 19.7497 46.0813 20.6134 45.5865C20.7526 45.5076 20.8459 45.3472 21.0886 45.0876C18.1304 45.7505 15.3067 46.1648 12.8139 47.6812C11.0074 48.7802 8.9928 49.2657 6.92025 49.5242C5.76804 49.6679 4.61283 49.761 3.68175 50.5756C3.61512 50.6126 3.53794 50.6262 3.46268 50.6139C3.41817 50.6117 3.37602 50.5645 3.29679 50.5151C3.56511 49.6166 4.30695 49.314 5.10228 49.1315C6.25213 48.8675 7.45674 48.781 8.56191 48.3987C10.0739 47.8812 11.5416 47.2425 12.9509 46.4889C15.0435 45.3594 17.2881 44.7926 19.5835 44.3306C19.9654 44.2268 20.3393 44.0959 20.7025 43.9389C20.6894 43.8328 20.6759 43.7254 20.6621 43.6167ZM38.1419 57.9718C42.293 57.789 43.131 57.5867 45.9348 56.1734C51.9042 53.1643 54.9173 48.1421 55.3605 41.6439C55.7709 35.6289 53.5419 30.5264 49.0113 26.521C44.2276 22.2909 38.6896 21.6708 32.8004 23.5257C28.8941 24.756 26.2868 27.6571 24.2103 31.033C21.7215 35.0797 20.9892 39.5395 21.9476 44.1335C22.8962 48.6809 25.5936 52.2404 29.3207 54.9453C31.9678 56.8668 34.8543 58.2989 38.1416 57.9718H38.1419ZM38.9644 19.686C39.0047 20.0973 39.0721 20.5054 39.1663 20.9078C39.2282 21.113 39.4346 21.2741 39.5754 21.455C39.6982 21.2498 39.9032 21.0548 39.9283 20.8385C40.0072 20.1628 39.9847 19.4756 40.0598 18.7994C40.3343 16.3274 40.4511 13.8571 39.4217 11.5202C38.5149 9.47139 38.1664 7.21919 38.4115 4.99219C38.4114 4.84027 38.3951 4.6888 38.3631 4.5403C37.7658 6.84172 37.6301 9.09973 38.4262 11.3696C39.0478 13.0837 39.1564 14.9419 38.7387 16.7168C38.4458 17.9637 38.2628 19.2388 38.063 20.5064C38.0157 20.8106 38.0957 21.1351 38.1173 21.4503L38.4058 21.4893C38.582 20.9208 38.758 20.3522 38.9641 19.686H38.9644ZM28.6346 24.5688C28.1011 23.9923 27.5912 23.5344 27.1955 22.993C26.5144 22.0618 25.8981 21.0819 25.2659 20.1148C24.1939 18.4748 22.7454 17.2874 21.0747 16.2668C19.887 15.5407 18.8477 14.5454 17.8301 13.5777C17.1602 12.9407 16.6463 12.139 16.0636 11.4109C16.9329 13.3888 17.921 15.2697 19.8346 16.4655C21.3877 17.4359 22.7337 18.6391 23.7332 20.1882C24.3303 21.1132 24.8202 22.1124 25.4684 22.9977C26.0499 23.7915 26.7821 24.4748 27.4479 25.2074L27.6554 25.018L26.1198 23.1129C26.5894 23.3735 26.9276 23.7534 27.2916 24.1073C27.6485 24.4525 27.9313 25.0698 28.6343 24.5688H28.6346ZM3.50955 31.87C5.42459 32.9302 7.40812 33.6504 9.62636 33.4958C11.9041 33.3365 14.1798 33.1815 16.3901 34.0423C17.5089 34.4781 18.675 34.7974 19.8318 35.127C20.1812 35.2264 20.5714 35.1837 20.9428 35.2059C20.9491 35.1142 20.9555 35.0224 20.9619 34.9307L19.3895 34.6563L21.2472 34.3498C19.9309 33.8499 18.6415 33.5262 17.3971 33.0777C15.2987 32.3208 13.1401 32.0683 10.97 32.4427C8.85138 32.8079 6.80313 32.7763 4.75347 32.1412C4.34972 32.016 3.92482 31.9586 3.50955 31.87ZM55.0522 72.8691C54.6851 70.7616 53.9763 68.8329 52.414 67.3014C51.1631 66.0576 50.1819 64.5692 49.5319 62.9293C48.8071 61.1615 47.9663 59.4419 47.1571 57.7101C47.0444 57.4689 46.8225 57.2789 46.6509 57.0652L46.4549 57.1965L47.1113 58.7796L45.8071 57.4025L45.5502 57.5603C45.6577 57.9013 45.7879 58.2347 45.9398 58.5583C46.4662 59.5226 47.1262 60.4273 47.5463 61.4336C48.6158 63.995 50.0973 66.236 52.1362 68.1329C53.3013 69.2079 54.1796 70.5567 54.6916 72.057C54.7864 72.3367 54.9309 72.5993 55.0522 72.8691ZM22.5863 72.1979C24.0015 70.7719 24.9485 68.9484 25.3011 66.9706C25.7316 64.5035 26.8013 62.1923 28.4037 60.2677C29.0982 59.4312 29.5741 58.4117 30.1335 57.466C30.2184 57.2779 30.2816 57.0808 30.3221 56.8785L30.1549 56.8027C29.9808 57.0379 29.8066 57.2731 29.6325 57.5084L29.542 57.4467C29.6446 57.187 29.7472 56.9276 29.8711 56.6136L29.3402 56.2181C28.3774 57.7682 27.3819 59.2392 26.5281 60.7884C25.914 61.9029 25.3022 63.0783 25.0175 64.3028C24.3931 66.99 24.3631 69.841 22.5863 72.1984V72.1979ZM72.1169 32.7596C70.42 32.7011 68.7542 32.8777 67.248 33.7155C64.8331 35.0591 62.2933 35.8156 59.4974 35.7153C58.5687 35.6818 57.6272 35.9077 56.6982 36.0557C56.4578 36.0941 56.2419 36.2862 56.0149 36.4077L56.0947 36.6389L58.2631 36.1842L56.1066 37.481L56.2295 37.722C56.3521 37.7314 56.4752 37.7305 56.5976 37.7193C58.0922 37.4625 59.5798 37.1543 61.0816 36.9521C62.6044 36.7469 64.0963 36.4498 65.4313 35.6736C67.5437 34.4444 69.6231 33.1574 72.1169 32.7596ZM50.7859 26.6534C51.7329 25.6079 52.5676 24.5524 53.5389 23.6434C55.2909 22.0041 56.4519 20.037 57.2833 17.8066C57.7935 16.4372 58.4751 15.1251 59.1606 13.8301C59.5293 13.1339 60.0688 12.5279 60.66 11.6993C60.5114 11.7814 60.3689 11.8743 60.2339 11.9773C58.6899 13.5635 57.222 15.2096 56.4489 17.3352C55.8089 19.0954 54.7929 20.5812 53.4816 21.9202C52.2704 23.1565 51.193 24.5234 50.0556 25.8329L50.1661 25.9456L51.0159 25.2512C51.1229 25.7839 50.0446 25.9567 50.7859 26.6534ZM56.3386 49.7144L56.2767 49.8595C55.9159 49.7241 55.557 49.5831 55.1937 49.4545C54.5224 49.2177 54.5213 49.2201 54.4676 49.6144C55.9762 50.5772 57.4332 51.4495 58.8269 52.4133C60.3769 53.4851 62.0626 54.1724 63.9285 54.3103C65.9319 54.4587 67.7983 54.9634 69.5099 56.0211C69.8278 56.2176 70.1492 56.4084 70.4688 56.602C68.9823 55.0784 67.2489 53.989 65.1355 53.6632C62.6952 53.2871 60.5109 52.4445 58.6061 50.7937C57.6515 49.9663 56.4396 49.4321 55.3284 48.7925C55.1427 48.6857 54.8767 48.7185 54.6479 48.6869L54.5893 48.9361L56.3386 49.7144ZM21.5051 46.4278C20.2652 47.0202 19.2561 47.581 18.1906 47.9943C16.3227 48.7025 14.5962 49.7386 13.0925 51.0537C11.1474 52.7733 9.2998 54.605 6.87511 55.6729C6.83312 55.6914 6.80897 55.7506 6.77725 55.7913C6.79966 55.805 6.8257 55.8341 6.84401 55.8297C6.96776 55.8008 7.09119 55.769 7.21225 55.7305C9.45353 55.0154 11.3744 53.7563 13.0863 52.1806C14.4473 50.928 16.0251 50.1216 17.7535 49.5111C19.032 49.0596 20.2549 48.4491 21.4943 47.8903C21.6636 47.8139 21.7833 47.6274 21.9259 47.4919L21.797 47.3557L19.5674 48.5261C20.0721 47.6101 21.5367 47.7909 21.5051 46.4278ZM36.8571 59.2018C36.993 60.5777 37.1947 61.9469 37.2489 63.3214C37.3382 65.5914 37.6225 67.8039 38.493 69.9278C39.2892 71.8708 39.7007 73.887 39.3543 76.0032C39.324 76.2761 39.3092 76.5505 39.3098 76.8251C39.8829 75.0299 40.187 73.2201 39.7212 71.3628C39.3203 69.7646 38.7532 68.1859 38.56 66.5629C38.2976 64.3563 38.3253 62.1157 38.2155 59.8902C38.1813 59.6391 38.1246 59.3917 38.046 59.1509C37.9789 59.2219 37.9275 59.3061 37.8951 59.3983C37.8627 59.4904 37.8499 59.5883 37.8577 59.6856C37.8512 59.8701 37.8351 60.054 37.8119 60.4098C37.4388 59.1228 37.4388 59.1228 36.8571 59.2018ZM55.3736 70.9774C55.3578 70.6734 55.3643 70.5763 55.3466 70.4837C55.0578 68.9631 54.1671 67.7702 53.2632 66.5708C52.2205 65.1878 51.2864 63.7521 50.8574 62.0195C50.4489 60.3706 49.9068 58.7539 49.3908 57.1334C49.273 56.7634 49.0213 56.4362 48.8311 56.0895L48.759 56.1406L49.7571 59.8284L49.6192 59.8685C49.0588 58.6737 48.4983 57.4789 47.9379 56.2842L47.5684 56.4184C47.5987 56.6896 47.6532 56.9577 47.7311 57.2192C48.2299 58.4868 48.8279 59.7206 49.2473 61.013C50.025 63.4094 51.2381 65.5036 53.0886 67.2286C53.9611 68.0418 54.6475 68.9939 54.9836 70.1667C55.0944 70.4458 55.2247 70.7167 55.3736 70.9774ZM40.4209 74.7L40.6867 74.6929C40.6867 73.6226 40.7552 72.5463 40.6709 71.4834C40.5234 69.6052 40.1891 67.7384 40.1169 65.8599C40.0732 64.7225 40.3969 63.5741 40.5161 62.4264C40.6329 61.302 40.6839 60.1738 40.1335 59.0891L39.8996 63.1026L39.6786 63.0868C39.612 61.9105 39.5563 60.7332 39.4655 59.5587C39.4539 59.407 39.2604 59.2692 39.1518 59.125C39.0757 59.2718 38.9423 59.4151 38.933 59.5658C38.8814 60.4044 38.8768 61.2458 38.8247 62.0842C38.6802 64.4092 38.8391 66.7011 39.5797 68.9241C40.2055 70.7967 40.8135 72.6672 40.4209 74.7ZM31.3276 57.5228L31.092 57.4123C30.9635 57.569 30.8273 57.7202 30.7075 57.8836C29.8236 59.0887 28.961 60.3108 28.0547 61.499C27.1795 62.6485 26.5488 63.9651 26.2016 65.3676C25.7686 67.0612 25.2434 68.7322 24.7129 70.3986C24.588 70.7908 24.2821 71.1247 24.0594 71.4863C25.3608 70.2078 26.0482 68.605 26.4819 66.8932C26.9866 64.8955 28.0774 63.0943 29.6139 61.7214C30.2258 61.1469 30.7776 60.5117 31.2609 59.8254C31.6414 59.2951 31.8821 58.6642 32.1849 58.0782L32.0378 57.9964L29.6702 60.8304L29.5109 60.691C30.0773 59.6143 31.1881 58.8237 31.3276 57.5228ZM5.60105 33.6905C5.77009 33.7903 5.89115 33.8774 6.02437 33.9379C7.35635 34.5419 8.76741 34.5583 10.1876 34.4785C11.6522 34.3962 13.0656 34.5806 14.397 35.2332C15.877 35.9585 17.3427 36.7158 18.8458 37.3897C19.3508 37.6164 19.9522 37.6306 20.5097 37.742L20.5319 37.6143L17.2213 36.263L17.3119 36.0598L20.6787 36.7961C20.7251 36.686 20.7716 36.5759 20.8181 36.4659C20.6255 36.3231 20.4525 36.1315 20.2374 36.0459C19.2647 35.6592 18.27 35.3271 17.3016 34.93C15.586 34.2262 13.845 33.738 11.9559 33.9161C10.7574 34.0385 9.5526 34.0892 8.34804 34.0678C7.45121 34.0446 6.55754 33.8293 5.60105 33.6905ZM58.4956 48.817C58.4399 48.8953 58.3842 48.9734 58.3283 49.0515C57.2962 48.516 56.4879 47.5159 55.1982 47.4629C55.2833 47.6948 55.4345 47.8967 55.6332 48.0434C55.9713 48.2912 56.3448 48.4909 56.6797 48.7423C57.6868 49.4982 58.6814 50.271 59.6832 51.0341C61.0181 52.0697 62.6129 52.7167 64.292 52.904C65.8678 53.0776 67.357 53.4687 68.7444 54.2625C67.7065 53.3519 66.5547 52.6707 65.1989 52.4234C62.7452 51.9758 60.7893 50.741 59.1258 48.897C58.3824 48.0729 57.4034 47.4563 56.5032 46.7829C56.2562 46.5981 55.9077 46.5487 55.5425 46.4137L58.4956 48.817ZM26.7475 25.9112C25.8453 24.4388 24.9225 22.9931 24.0621 21.5111C23.2069 20.038 22.2058 18.6924 20.7592 17.7721C19.0173 16.6641 17.3771 15.4759 16.3584 13.6042C16.9156 15.134 17.7968 16.4439 19.1191 17.3835C21.0395 18.7477 22.3923 20.5115 23.3113 22.6721C23.769 23.7497 24.3947 24.7611 25.0023 25.7674C25.2093 26.1103 25.5933 26.3461 25.8963 26.6308L25.9557 26.5344L23.9653 23.5303L24.1652 23.3805C25.1051 24.1487 25.5909 25.4344 26.7475 25.9112ZM8.86196 55.8483C8.98657 55.8493 9.11046 55.8293 9.22845 55.7892C10.3658 55.1547 11.6104 54.6482 12.6062 53.8366C14.5436 52.2564 16.6406 51.2323 19.1595 51.0952C20.5345 51.0205 21.7387 50.4165 22.9015 49.7327L19.1076 50.6075L19.0337 50.3021C19.2209 50.2693 19.4057 50.2248 19.5873 50.1688C20.4184 49.8585 21.2556 49.5599 22.0653 49.2015C22.2509 49.1194 22.3392 48.8173 22.4722 48.6164C21.7493 48.6864 21.2179 48.8959 20.6767 49.076C18.5402 49.7872 16.3046 50.294 14.4753 51.6939C12.6311 53.1043 11.0183 54.8264 8.86196 55.8483ZM49.0555 24.9079L49.224 25.213C49.533 25.0542 49.9107 24.962 50.1394 24.7257C51.3451 23.4818 52.5835 22.2583 53.6718 20.9151C54.5082 19.913 55.2084 18.8047 55.7545 17.6191C56.541 15.8299 57.3065 14.0623 58.7112 12.6544C58.7216 12.644 58.6796 12.5819 58.6424 12.4984C57.4979 13.4354 56.5961 14.6345 56.0136 15.994C55.0408 18.2505 53.4327 20.1754 51.3852 21.5341C50.4306 22.1721 49.5819 22.9712 48.7055 23.7211C48.5135 23.8852 48.4081 24.1509 48.2635 24.3698L48.398 24.4448L50.951 22.4278L51.1688 22.6803L49.0555 24.9079ZM58.8851 34.2685L58.9096 34.5632C57.8171 34.5948 56.7139 34.5825 55.7614 35.2388C55.807 35.2871 55.8619 35.3256 55.9228 35.352C55.9837 35.3784 56.0493 35.3921 56.1157 35.3923C57.4226 35.335 58.7286 35.2397 60.0358 35.2144C62.1681 35.1732 64.2016 34.8129 66.0519 33.6654C66.6387 33.3178 67.255 33.0227 67.8937 32.7834C68.6099 32.4993 69.3537 32.2836 70.0854 32.0381C70.0637 31.9681 70.0421 31.8979 70.0207 31.8277C68.8268 32.1796 67.6111 32.4711 66.4439 32.8961C64.2546 33.6935 62.079 34.3064 59.6874 33.9379C58.4648 33.7485 57.1873 33.9096 55.9349 33.9322C55.8015 33.9345 55.6703 34.0711 55.5382 34.1454C55.5518 34.1866 55.5655 34.2278 55.5791 34.269L58.8851 34.2685ZM37.0426 7.62412C36.8133 8.76764 37.0031 10.0854 37.3183 11.3792C37.7181 12.987 37.7289 14.6668 37.3499 16.2796C37.0009 17.783 36.6276 19.2808 36.2888 20.7864C36.2271 21.0606 36.2799 21.3605 36.2799 21.6485L36.6142 21.7735C36.8218 21.4684 37.1209 21.1895 37.2195 20.8534C37.5131 19.8516 37.6615 18.8048 37.9872 17.8153C38.6603 15.7702 38.6038 13.772 37.9738 11.7217C37.548 10.3359 37.3229 8.88823 37.0426 7.62412ZM63.3698 43.0147L63.3855 42.9636C63.142 42.9039 62.9013 42.8269 62.6544 42.7873C60.8235 42.4934 58.9926 42.1986 57.1587 41.9302C56.9564 41.9007 56.7296 42.0373 56.5141 42.0968C56.6948 42.2639 56.8648 42.5624 57.0577 42.578C59.1606 42.7491 61.2659 42.876 63.3704 43.0147H63.3698ZM21.6196 57.308L21.7616 57.4629L26.0242 53.4902L25.723 53.1745C24.1915 54.3807 22.8839 55.8214 21.6196 57.308ZM56.0333 57.7559C56.0086 57.6603 55.972 57.5682 55.9244 57.4817C54.7045 56.0865 53.478 54.6965 52.2601 53.2991C51.8644 52.8451 51.6747 53.1041 51.4637 53.4649L56.0333 57.7559ZM20.1549 41.6365L15.2281 42.7474C16.7689 42.7679 18.2744 42.6093 19.7805 42.4756C20.4008 42.4205 20.3563 42.1048 20.1549 41.6365ZM17.9333 26.9837L23.0141 30.5253L23.1403 30.3371C22.8138 29.6029 19.7028 27.5384 17.9333 26.9837ZM53.337 29.9463C54.0345 30.1823 58.1353 27.572 59.0417 26.4998L53.337 29.9463ZM46.2838 16.9395C45.5104 18.7001 44.737 20.4608 43.899 22.3691C44.6743 22.1228 46.0922 18.7481 46.2838 16.9395ZM32.0455 22.311L32.4533 22.1718C31.8936 20.812 31.3341 19.4522 30.7746 18.0926L30.5751 18.1657C31.0651 19.5474 31.5552 20.9292 32.0455 22.311Z" fill="#917256"/>
<path d="M42.5704 35.3877C43.4532 35.1066 44.32 34.7322 45.2243 34.5793C45.7717 34.4866 46.3765 34.7371 46.9562 34.8337L48.1057 35.3448L50.7763 36.9783L50.7842 37.0665L49.048 36.5161C49.4778 37.3842 50.5307 37.1939 51.364 37.6885L50.4547 37.7595L50.4321 37.8637L51.5666 38.222C51.5666 38.2777 51.5684 38.3336 51.5691 38.3893C51.3659 38.4218 51.1555 38.5058 50.9607 38.4785C50.4084 38.3837 49.8415 38.4207 49.3062 38.5865C48.7709 38.7523 48.2824 39.0422 47.8803 39.4326C46.7007 40.5138 45.3528 40.6768 43.8789 39.9713C42.8479 39.4778 41.7697 39.0828 40.6533 38.6194L41.059 38.028C40.9789 37.8774 40.8323 37.7297 40.8596 37.6293C40.9639 37.3052 41.0874 36.9876 41.2293 36.678L42.5704 35.3877ZM47.1276 37.4112C46.8435 38.9129 46.4082 39.3748 45.2737 39.3038C44.9323 39.2825 44.4793 39.1776 44.2941 38.9408C43.9703 38.5271 43.814 37.9821 43.5351 37.3782L41.8035 38.579C42.7663 38.901 43.6588 39.1671 44.5265 39.4978C45.4708 39.8578 46.3639 39.8395 47.2255 39.2969C48.3314 38.6027 48.3215 38.1366 47.1283 37.4112H47.1276ZM49.653 38.0345C47.3734 35.7154 45.8613 34.9804 44.4433 35.4027C43.3081 35.7408 41.6969 37.1307 41.4832 37.9524C42.8136 37.2308 43.8959 36.0156 45.6028 36.0402C47.2851 36.0644 48.3921 37.173 49.6529 38.0345H49.653Z" fill="#917256"/>
<path d="M27.1292 37.0862C27.9548 36.3464 28.5677 35.4095 29.7319 35.0107C31.4956 34.4065 33.0222 34.8176 34.5271 35.6933C34.868 35.9176 35.2412 36.0883 35.6339 36.1993C33.8863 35.2356 32.5045 33.5846 30.227 33.6204C27.9747 33.6561 26.4282 34.9743 24.8541 36.3074L24.6279 36.176L26.7216 31.6895L27.0057 31.8157L25.2547 35.1906L25.3893 35.2695C25.9722 34.7715 26.5415 34.2559 27.1413 33.7786C29.2369 32.1098 31.5945 31.9084 34.0565 32.6936C34.5851 32.8622 35.1004 33.3365 35.4341 33.804C36.6434 35.4985 37.4911 37.3171 37.2736 39.5109C37.1562 40.6967 37.2528 41.9037 37.0768 43.1285C37.0342 42.8444 36.9834 42.5603 36.9506 42.2741C36.7864 40.8489 36.6462 39.4206 36.4579 37.9987C36.3569 37.236 36.0509 36.5871 35.0672 36.4045C35.4268 36.9085 35.7407 37.3484 36.0545 37.7884L35.9172 37.9524C35.4787 37.6683 35.0456 37.3763 34.6007 37.1029C33.6765 36.5347 32.8029 35.8252 31.8046 35.4521C30.4731 34.9546 29.3951 35.7029 28.4099 36.5791C27.7302 37.1827 27.0083 37.737 26.2495 38.2376C25.9451 38.4385 25.5031 38.4313 25.1254 38.3955C25.8031 37.951 26.4807 37.5064 27.1582 37.0616L27.1292 37.0862ZM33.2848 34.1212L35.0254 35.3573C34.8082 34.4241 34.0385 34.2837 33.2843 34.1212H33.2848Z" fill="#917256"/>
<path d="M42.5702 35.3875L41.2286 36.6778C40.7192 37.0323 40.3852 37.4458 40.3111 38.1286C40.1643 39.4786 39.8993 40.8156 39.6598 42.3025C39.5763 42.0674 39.4924 41.9468 39.4984 41.8308C39.5842 40.1562 39.6641 38.4809 39.7812 36.8082C39.9706 34.0981 42.051 32.2467 44.8762 32.1835C46.9127 32.1064 48.9013 32.8124 50.4333 34.1565H49.8505L51.4327 35.395C51.3981 34.5967 50.9232 33.7324 49.5925 32.0963C48.8112 31.1361 47.986 30.2117 47.244 29.2209C49.2549 31.0874 50.969 33.185 52.2516 35.7188C51.4507 35.9102 50.9099 35.4287 50.302 35.1348C49.3696 34.684 48.4385 34.2043 47.459 33.8827C45.5081 33.241 43.8469 33.7371 42.5702 35.3875ZM43.3655 34.2438L43.241 34.0915C42.535 34.5855 41.549 34.7386 41.3615 35.8643L43.3655 34.2438Z" fill="#917256"/>
<path d="M35.8191 38.516L32.5825 41.1089L32.3527 40.8229L34.7659 39.0539L34.5923 38.7996C34.1622 39.0026 33.7196 39.1832 33.304 39.4126C31.4248 40.4504 29.6072 40.5071 27.9256 39.0338C27.4555 38.622 27.013 38.5479 26.4612 38.7541C26.3093 38.7857 26.1536 38.7952 25.999 38.7826C26.8917 38.1471 27.763 37.5386 28.6218 36.913C30.1602 35.7923 32.3576 35.7706 34.3009 37.3066C34.7869 37.6906 35.2704 38.0786 35.8191 38.516ZM32.6248 37.3717C32.0027 38.9147 31.6147 39.2666 30.7308 39.1783C29.9836 39.1034 29.5196 38.5627 29.2787 37.4451C29.094 37.5702 28.9195 37.6771 28.7579 37.8003C28.0181 38.364 28.0364 38.8272 28.9032 39.1123C29.6073 39.344 30.3975 39.5438 31.1129 39.4567C32.1577 39.3293 33.1697 38.9325 34.3227 38.6156L32.6248 37.3717Z" fill="#917256"/>
<path d="M37.2749 57.3957C46.1038 57.8907 52.4272 50.9757 53.7183 45.3655C55.5383 37.4559 53.2936 30.9235 46.601 26.0257L46.8526 25.8047C47.2249 26.0223 47.6369 26.1923 47.9634 26.4648C51.7149 29.5964 54.2242 33.4677 54.7007 38.4168C55.2847 44.4875 53.6159 49.7324 48.7528 53.7181C46.6332 55.4553 44.3521 56.8834 41.6028 57.3234C40.1797 57.5513 38.7249 57.5805 37.2847 57.6995L37.2749 57.3957Z" fill="#917256"/>
<path d="M35.906 23.6278C28.9728 25.3212 24.7597 29.7094 23.0236 36.5311C21.2344 43.5616 24.2232 48.9623 29.0473 53.746C28.9357 53.746 28.8398 53.776 28.8011 53.7418C26.181 51.4107 23.9771 48.7784 22.7858 45.4116C21.4939 41.761 21.9414 38.1669 23.1614 34.614C24.4557 30.8435 26.8225 27.86 30.0224 25.5182C31.4 24.5101 34.6008 23.4632 35.906 23.6278Z" fill="#917256"/>
<path d="M43.9019 51.332C42.6776 51.1803 41.4985 50.8921 40.329 50.9262C38.9277 50.9669 37.5738 51.2353 36.1277 50.9262C35.1941 50.7262 34.1232 51.2027 33.1073 51.3177C32.9356 51.3372 32.7302 51.0609 32.5405 50.9212C32.7931 50.6213 33.083 50.0415 33.292 50.0688C34.5411 50.2352 35.5629 49.6558 36.6886 49.3411C37.6289 49.0783 38.7887 49.2093 39.7466 49.5049C40.8438 49.8436 41.8048 50.5015 43.0414 49.964C43.5195 49.756 44.0506 50.6058 43.9019 51.332Z" fill="#917256"/>
<path d="M35.2726 43.9444C34.6432 45.4464 34.6571 45.7699 35.1651 46.0897C35.6031 45.966 35.8849 45.7865 36.0964 45.8481C36.4936 45.9779 36.8671 46.1714 37.2023 46.421C37.804 46.8447 38.3796 46.8788 38.9114 46.3601C39.1635 46.1065 39.4694 45.9127 39.8064 45.7931C40.1434 45.6735 40.503 45.6311 40.8586 45.6691V46.3636C41.7288 45.8727 41.7498 45.6546 41.1172 43.9441C41.9049 44.285 42.3604 45.0153 42.2507 45.7617C42.1403 46.517 41.5832 47.1689 40.9091 47.217C40.5276 47.2443 40.002 47.4211 39.8264 46.6074C39.5626 46.8568 39.3124 47.1202 39.0771 47.3966C38.5171 48.135 38.1383 48.1746 37.3969 47.6119C36.9185 47.2489 36.3914 46.9504 35.886 46.6231L35.7337 46.8626L36.4858 47.2462C34.9895 47.3264 34.4411 47.0707 34.2222 46.2045C34.125 45.7647 34.1751 45.3051 34.365 44.8967C34.5548 44.4883 34.8738 44.1536 35.2726 43.9444Z" fill="#917256"/>
<path d="M43.8872 55.5616C50.7048 51.8517 53.7144 46.0417 53.4048 38.3396C54.1076 39.277 53.8478 42.9786 52.9426 45.7986C51.5688 50.0798 47.5247 54.497 43.8872 55.5616Z" fill="#917256"/>
<path d="M23.3083 41.6333C22.2423 35.0662 28.1944 25.3083 35.1618 24.7764C27.091 27.3791 23.7869 33.437 23.3083 41.6333Z" fill="#917256"/>
<path d="M41.2517 52.2613L39.5284 53.1943L40.8446 53.9964L40.7461 54.216C39.9355 54.1388 39.1247 53.9991 38.3143 54.0023C37.5201 54.0053 36.7263 54.1539 35.8813 54.2441C36.4066 53.0287 37.5719 53.4824 38.4507 53.2461L38.4398 53.0308C37.8093 53.0308 37.1789 53.0343 36.5485 53.0298C35.8881 53.0251 35.3658 52.8026 35.0342 52.0767C37.1572 52.818 39.1645 52.5093 41.2517 52.2613Z" fill="#917256"/>
<path d="M52.6792 34.6238C51.7827 33.2989 50.9561 31.7955 49.8556 30.5306C48.7737 29.287 47.4136 28.2854 46.167 27.1699C48.4343 27.8391 52.5103 32.5837 52.6792 34.6238Z" fill="#917256"/>
<path d="M51.2189 46.7754C50.6692 48.5657 49.5599 49.9867 48.1611 51.2119C49.1808 49.7331 50.2 48.2543 51.2189 46.7754Z" fill="#917256"/>
<path d="M40.8096 23.5363C41.8597 23.3177 45.3898 24.5645 45.6829 25.2691L40.8096 23.5363Z" fill="#917256"/>
<path d="M24.6643 46.4947C23.7547 44.2209 24.0363 41.8504 24.0622 39.5037C24.2622 41.8254 24.4621 44.1475 24.6643 46.4947Z" fill="#917256"/>
<path d="M34.1989 56.702C32.5171 56.3587 31.1659 55.3309 29.7163 54.4825L29.8323 54.2656L34.1989 56.702Z" fill="#917256"/>
<path d="M27.1286 37.0862L27.1562 37.0603C26.6669 37.2387 26.186 37.4456 25.6859 37.5853C25.3227 37.6868 24.9383 37.6839 24.5767 37.5769L26.7976 36.8779C26.7794 36.817 26.7613 36.7559 26.7433 36.6948L25.8449 36.8989C25.8306 36.8496 25.8163 36.8003 25.8019 36.751L27.6949 36.0312L27.1286 37.0862Z" fill="#917256"/>
<path d="M25.7764 48.2812C26.2294 48.9151 26.6603 49.5664 27.1417 50.1778C27.6055 50.7667 28.1217 51.3142 28.55 51.9323C27.3205 50.9305 26.1552 49.8775 25.7764 48.2812Z" fill="#917256"/>
<path d="M46.999 41.0965L49.4406 38.9814C49.1855 40.1938 48.3258 40.9475 46.999 41.0965Z" fill="#917256"/>
<path d="M48.106 35.3446L46.9563 34.8336L46.8438 34.3899L49.473 35.5405C49.4477 35.6063 49.4225 35.6722 49.3974 35.7383L48.106 35.3446Z" fill="#917256"/>
<path d="M42.5501 24.8093L45.5898 26.4524L45.4838 26.6519L42.3916 25.0159L42.5501 24.8093Z" fill="#917256"/>
<path d="M30.0453 34.6186L26.8911 36.0323C27.8617 35.0672 29.1595 34.5262 30.0453 34.6186Z" fill="#917256"/>
<path d="M41.8206 39.4578L43.8986 40.8003L43.7514 41.0181L41.6484 39.6953C41.7059 39.6163 41.7633 39.5371 41.8206 39.4578Z" fill="#917256"/>
<path d="M27.1149 39.1812L28.8483 40.646C27.8133 40.5652 27.4569 39.8793 26.9741 39.3676L27.1149 39.1812Z" fill="#917256"/>
<path d="M33.037 55.4122L30.7061 53.8605C30.7387 53.8108 30.7714 53.7611 30.8042 53.7112L33.1835 55.2239L33.037 55.4122Z" fill="#917256"/>
</svg>
