<svg width="389" height="680" viewBox="0 0 389 680" fill="none" xmlns="http://www.w3.org/2000/svg">
<path d="M357 0C357 17.6731 371.327 32 389 32V648C371.327 648 357 662.327 357 680H32C32 662.327 17.6731 648 0 648V32C17.6731 32 32 17.6731 32 0H357Z" fill="white"/>
<mask id="path-2-inside-1_243_820" fill="white">
<path d="M349.004 10C349.164 26.2656 362.398 39.4023 378.701 39.4023C378.801 39.4023 378.901 39.3994 379 39.3984V640.003C378.901 640.002 378.801 640 378.701 640C362.298 640 349 653.298 349 669.701C349 669.801 349.003 669.9 349.004 670H39.3984C39.3994 669.901 39.4023 669.801 39.4023 669.701C39.4023 653.398 26.2656 640.163 10 640.003V39.3984C26.1661 39.239 39.239 26.1661 39.3984 10H349.004Z"/>
</mask>
<path d="M349.004 10L352.004 9.97041L351.974 7H349.004V10ZM378.701 39.4023L378.701 42.4023L378.701 42.4023L378.701 39.4023ZM379 39.3984H382V36.3687L378.97 36.3986L379 39.3984ZM379 640.003L378.97 643.003L382 643.033V640.003H379ZM378.701 640L378.701 637H378.701V640ZM349 669.701L346 669.701L346 669.701L349 669.701ZM349.004 670V673H352.034L352.004 669.97L349.004 670ZM39.3984 670L36.3986 669.97L36.3687 673H39.3984V670ZM39.4023 669.701L42.4023 669.701V669.701H39.4023ZM10 640.003H7V642.973L9.97041 643.003L10 640.003ZM10 39.3984L9.97041 36.3986L7 36.4279V39.3984H10ZM39.3984 10V7H36.4279L36.3986 9.97041L39.3984 10ZM349.004 10L346.004 10.0296C346.181 27.9385 360.75 42.4023 378.701 42.4023V39.4023V36.4023C364.045 36.4023 352.148 24.5928 352.004 9.97041L349.004 10ZM378.701 39.4023L378.701 42.4023C378.799 42.4023 379.03 42.3983 379.03 42.3983L379 39.3984L378.97 36.3986C378.771 36.4005 378.803 36.4023 378.701 36.4023L378.701 39.4023ZM379 39.3984H376V640.003H379H382V39.3984H379ZM379 640.003L379.03 637.003C378.971 637.002 378.818 637 378.701 637L378.701 640L378.701 643C378.783 643 378.83 643.001 378.97 643.003L379 640.003ZM378.701 640V637C360.641 637 346 651.641 346 669.701H349H352C352 654.955 363.955 643 378.701 643V640ZM349 669.701L346 669.701C346 669.799 346.004 670.03 346.004 670.03L349.004 670L352.004 669.97C352.002 669.771 352 669.803 352 669.701L349 669.701ZM349.004 670V667H39.3984V670V673H349.004V670ZM39.3984 670L42.3983 670.03C42.3983 670.03 42.4023 669.799 42.4023 669.701L39.4023 669.701L36.4023 669.701C36.4023 669.803 36.4005 669.771 36.3986 669.97L39.3984 670ZM39.4023 669.701H42.4023C42.4023 651.75 27.9386 637.18 10.0296 637.003L10 640.003L9.97041 643.003C24.5927 643.147 36.4023 655.045 36.4023 669.701H39.4023ZM10 640.003H13V39.3984H10H7V640.003H10ZM10 39.3984L10.0296 42.3983C27.8294 42.2227 42.2227 27.8294 42.3983 10.0296L39.3984 10L36.3986 9.97041C36.2552 24.5028 24.5028 36.2552 9.97041 36.3986L10 39.3984ZM39.3984 10V13H349.004V10V7H39.3984V10Z" fill="#917256" mask="url(#path-2-inside-1_243_820)"/>
</svg>
